<svg width="100" height="100" viewBox="0 0 100 100" fill="none" xmlns="http://www.w3.org/2000/svg">
<g clip-path="url(#clip0_1800_14762)">
<path fill-rule="evenodd" clip-rule="evenodd" d="M50 7.8125C26.7004 7.8125 7.8125 26.7004 7.8125 50C7.8125 73.2995 26.7004 92.1875 50 92.1875C73.2996 92.1875 92.1875 73.2995 92.1875 50C92.1875 26.7004 73.2996 7.8125 50 7.8125Z" fill="#1E386B"/>
<path fill-rule="evenodd" clip-rule="evenodd" d="M43.2022 64.3308L40.5388 61.6673L66.3486 35.7634C67.2311 34.8807 68.6621 34.8807 69.5447 35.7634L70.6102 36.8287C71.4927 37.7113 71.4927 39.1423 70.6102 40.025L46.3984 64.3308C45.5158 65.2134 44.0849 65.2134 43.2022 64.3308Z" fill="white"/>
<path fill-rule="evenodd" clip-rule="evenodd" d="M49.0571 61.6673L46.3936 64.3308C45.511 65.2134 44.08 65.2134 43.1974 64.3308L32.5916 53.7249C31.709 52.8424 31.709 51.4114 32.5916 50.5288L33.6569 49.4634C34.5396 48.5808 35.9706 48.5808 36.8532 49.4634L49.0571 61.6673Z" fill="white"/>
</g>
<defs>
<clipPath id="clip0_1800_14762">
<rect width="100" height="100" fill="white"/>
</clipPath>
</defs>
</svg>
