<svg width="100" height="100" viewBox="0 0 100 100" fill="none" xmlns="http://www.w3.org/2000/svg">
<g clip-path="url(#clip0_1800_14759)">
<path fill-rule="evenodd" clip-rule="evenodd" d="M93.457 50C93.457 74.0007 74.0007 93.457 50 93.457C25.9993 93.457 6.54297 74.0007 6.54297 50C6.54297 25.9993 25.9993 6.54297 50 6.54297C74.0007 6.54297 93.457 25.9993 93.457 50Z" fill="#F7F5F9"/>
<path fill-rule="evenodd" clip-rule="evenodd" d="M80.2565 49.9462C80.2565 66.7467 66.637 80.3661 49.8365 80.3661C33.0361 80.3661 19.4166 66.7467 19.4166 49.9462C19.4166 33.1457 33.0361 19.5263 49.8365 19.5263C66.637 19.5263 80.2565 33.1457 80.2565 49.9462Z" fill="#1E386B"/>
<path fill-rule="evenodd" clip-rule="evenodd" d="M66.2964 50C66.2964 59.0003 59.0003 66.2964 50 66.2964C40.9997 66.2964 33.7036 59.0003 33.7036 50C33.7036 40.9997 40.9997 33.7036 50 33.7036C59.0003 33.7036 66.2964 40.9997 66.2964 50Z" fill="#F7F5F9"/>
<path d="M50 50L82.3427 22.2267" stroke="#CB2026" stroke-width="7.11529" stroke-linecap="round" stroke-linejoin="round"/>
<path fill-rule="evenodd" clip-rule="evenodd" d="M54.3457 50C54.3457 52.4 52.4 54.3457 50 54.3457C47.6 54.3457 45.6543 52.4 45.6543 50C45.6543 47.5999 47.6 45.6543 50 45.6543C52.4 45.6543 54.3457 47.5999 54.3457 50Z" fill="#CB2026"/>
<path fill-rule="evenodd" clip-rule="evenodd" d="M76.3027 30.2243C76.3027 32.0244 74.8434 33.4836 73.0435 33.4836C71.2435 33.4836 69.7842 32.0244 69.7842 30.2243C69.7842 28.4242 71.2435 26.965 73.0435 26.965C74.8434 26.965 76.3027 28.4242 76.3027 30.2243Z" fill="#CB2026"/>
<path fill-rule="evenodd" clip-rule="evenodd" d="M66.1877 39.8962C66.1877 41.9964 64.4852 43.6987 62.3853 43.6987C60.2853 43.6987 58.5828 41.9964 58.5828 39.8962C58.5828 37.7963 60.2853 36.0938 62.3853 36.0938C64.4852 36.0938 66.1877 37.7963 66.1877 39.8962Z" fill="#CB2026"/>
</g>
<defs>
<clipPath id="clip0_1800_14759">
<rect width="100" height="100" fill="white"/>
</clipPath>
</defs>
</svg>
