<svg width="24" height="24" viewBox="0 0 24 24" fill="none" xmlns="http://www.w3.org/2000/svg">
<path d="M3.79974 2.30879C3.38803 1.89707 2.7205 1.89707 2.30879 2.30879C1.89707 2.7205 1.89707 3.38803 2.30879 3.79974L10.509 12L2.30879 20.2003C1.89707 20.612 1.89707 21.2795 2.30879 21.6912C2.72051 22.1029 3.38803 22.1029 3.79975 21.6912L12 13.491L20.2001 21.6911C20.6119 22.1028 21.2794 22.1028 21.6911 21.6911C22.1028 21.2794 22.1028 20.6119 21.6911 20.2001L13.491 12L21.6912 3.79974C22.1029 3.38803 22.1029 2.7205 21.6912 2.30879C21.2795 1.89707 20.612 1.89707 20.2003 2.30879L12 10.509L3.79974 2.30879Z" fill="#1E386B"/>
</svg>
