<svg width="24" height="25" viewBox="0 0 24 25" fill="none" xmlns="http://www.w3.org/2000/svg">
<g id="lk-edit">
<path id="icon" fill-rule="evenodd" clip-rule="evenodd" d="M16.4374 2.01379C17.0921 2.01379 17.7197 2.27702 18.1781 2.7422L21.279 5.86447C21.7407 6.32932 22.0001 6.95981 22.0001 7.61722C22.0001 8.27463 21.7407 8.90511 21.279 9.36997L9.95751 20.7659C9.25902 21.5772 8.2689 22.0756 7.1346 22.1539H2V21.1471L2.00325 16.903C2.08844 15.8413 2.57867 14.854 3.3265 14.1905L14.6954 2.74342C15.1564 2.27642 15.7834 2.01379 16.4374 2.01379ZM7.06398 20.1427C7.59821 20.1046 8.09549 19.8543 8.49479 19.3944L16.0567 11.7803L12.3023 7.99995L4.6961 15.6567C4.29095 16.0175 4.04031 16.5223 4 16.9841V20.1408L7.06398 20.1427ZM13.7167 6.57617L17.4709 10.3564L19.8648 7.94601C19.9514 7.85881 20.0001 7.74054 20.0001 7.61722C20.0001 7.4939 19.9514 7.37563 19.8648 7.28843L16.7611 4.16336C16.6755 4.07645 16.5589 4.02757 16.4374 4.02757C16.3158 4.02757 16.1992 4.07645 16.1136 4.16336L13.7167 6.57617Z" fill="#1E386B"/>
</g>
</svg>
