<svg width="24" height="25" viewBox="0 0 24 25" fill="none" xmlns="http://www.w3.org/2000/svg">
<g id="lk-print">
<path id="icon" fill-rule="evenodd" clip-rule="evenodd" d="M4 7.04824H6V2.01379H18V7.04824H20C21.1046 7.04824 22 7.94984 22 9.06203V17.1171C22 18.2293 21.1046 19.1309 20 19.1309H18V22.1516H6V19.1309H4C2.89543 19.1309 2 18.2293 2 17.1171V9.06203C2 7.94984 2.89543 7.04824 4 7.04824ZM16 7.04824H8V4.02757H16V7.04824ZM20 9.06203V17.1171H18V15.1034H6V17.1171H4V9.06203H20ZM16 17.1171H8V20.1378H16V17.1171ZM19 11.0758C19 10.5197 18.5523 10.0689 18 10.0689C17.4477 10.0689 17 10.5197 17 11.0758C17 11.6319 17.4477 12.0827 18 12.0827C18.5523 12.0827 19 11.6319 19 11.0758Z" fill="#1E386B"/>
</g>
</svg>
