<svg width="24" height="25" viewBox="0 0 24 25" fill="none" xmlns="http://www.w3.org/2000/svg">
<g id="lk-share">
<path id="icon" fill-rule="evenodd" clip-rule="evenodd" d="M14 6.04135C14 6.33076 14.0303 6.61303 14.0879 6.88513L9.01694 9.43809C8.28363 8.59069 7.20393 8.05514 6 8.05514C3.79086 8.05514 2 9.85834 2 12.0827C2 14.3071 3.79086 16.1103 6 16.1103C7.20393 16.1103 8.28363 15.5747 9.01694 14.7273L14.0879 17.2803C14.0303 17.5524 14 17.8346 14 18.124C14 20.3484 15.7909 22.1516 18 22.1516C20.2091 22.1516 22 20.3484 22 18.124C22 15.8997 20.2091 14.0965 18 14.0965C16.7961 14.0965 15.7164 14.632 14.9831 15.4794L9.91208 12.9265C9.96968 12.6544 10 12.3721 10 12.0827C10 11.7933 9.96968 11.511 9.91208 11.2389L14.9831 8.68596C15.7164 9.53336 16.7961 10.0689 18 10.0689C20.2091 10.0689 22 8.26572 22 6.04135C22 3.81699 20.2091 2.01379 18 2.01379C15.7909 2.01379 14 3.81699 14 6.04135ZM8 12.0827C8 13.1949 7.10457 14.0965 6 14.0965C4.89543 14.0965 4 13.1949 4 12.0827C4 10.9705 4.89543 10.0689 6 10.0689C7.10457 10.0689 8 10.9705 8 12.0827ZM18 8.05514C19.1046 8.05514 20 7.15354 20 6.04136C20 4.92917 19.1046 4.02757 18 4.02757C16.8954 4.02757 16 4.92917 16 6.04136C16 7.15354 16.8954 8.05514 18 8.05514ZM20 18.124C20 19.2362 19.1046 20.1378 18 20.1378C16.8954 20.1378 16 19.2362 16 18.124C16 17.0119 16.8954 16.1103 18 16.1103C19.1046 16.1103 20 17.0119 20 18.124Z" fill="#1E386B"/>
</g>
</svg>
