<svg width="24" height="11" viewBox="-5.5 0 24 11" fill="none" xmlns="http://www.w3.org/2000/svg">
<path d="M12 0H1C0.734784 0 0.48043 0.105357 0.292893 0.292893C0.105357 0.48043 0 0.734784 0 1V10C0 10.2652 0.105357 10.5196 0.292893 10.7071C0.48043 10.8946 0.734784 11 1 11H12C12.2652 11 12.5196 10.8946 12.7071 10.7071C12.8946 10.5196 13 10.2652 13 10V1C13 0.734784 12.8946 0.48043 12.7071 0.292893C12.5196 0.105357 12.2652 0 12 0ZM12 1V7.42188L10.3706 5.79313C10.2778 5.70024 10.1675 5.62656 10.0462 5.57629C9.92483 5.52602 9.79478 5.50015 9.66344 5.50015C9.5321 5.50015 9.40204 5.52602 9.2807 5.57629C9.15936 5.62656 9.04911 5.70024 8.95625 5.79313L7.70625 7.04313L4.95625 4.29313C4.76873 4.10573 4.51448 4.00046 4.24937 4.00046C3.98427 4.00046 3.73002 4.10573 3.5425 4.29313L1 6.83562V1H12ZM1 8.25L4.25 5L9.25 10H1V8.25ZM12 10H10.6644L8.41438 7.75L9.66438 6.5L12 8.83625V10ZM7.5 3.75C7.5 3.60166 7.54399 3.45666 7.6264 3.33332C7.70881 3.20999 7.82594 3.11386 7.96299 3.05709C8.10003 3.00032 8.25083 2.98547 8.39632 3.01441C8.5418 3.04335 8.67544 3.11478 8.78033 3.21967C8.88522 3.32456 8.95665 3.4582 8.98559 3.60368C9.01453 3.74917 8.99967 3.89997 8.94291 4.03701C8.88614 4.17406 8.79001 4.29119 8.66668 4.3736C8.54334 4.45601 8.39834 4.5 8.25 4.5C8.05109 4.5 7.86032 4.42098 7.71967 4.28033C7.57902 4.13968 7.5 3.94891 7.5 3.75Z" fill="#1E386B"/>
</svg>
