<svg width="100" height="100" viewBox="0 0 100 100" fill="none" xmlns="http://www.w3.org/2000/svg">
<path d="M87.4609 8.88672H23.125C21.0539 8.88672 19.375 10.5657 19.375 12.6367V76.9727C19.375 79.0437 21.0539 80.7227 23.125 80.7227H87.4609C89.532 80.7227 91.2109 79.0437 91.2109 76.9727V12.6367C91.2109 10.5657 89.532 8.88672 87.4609 8.88672Z" fill="#1E386B"/>
<path d="M79.1992 16.9727H12.6367C10.5657 16.9727 8.88672 18.6516 8.88672 20.7227V87.2852C8.88672 89.3562 10.5657 91.0352 12.6367 91.0352H79.1992C81.2703 91.0352 82.9492 89.3562 82.9492 87.2852V20.7227C82.9492 18.6516 81.2703 16.9727 79.1992 16.9727Z" fill="#E4EBF7"/>
<path fill-rule="evenodd" clip-rule="evenodd" d="M45.9766 64.5215L35.3627 70.1016C34.9044 70.3425 34.3375 70.1663 34.0966 69.708C34.0007 69.5255 33.9676 69.3165 34.0024 69.1133L36.0295 57.2945L27.4427 48.9245C27.0719 48.5631 27.0643 47.9695 27.4257 47.5987C27.5696 47.4511 27.7582 47.355 27.9622 47.3254L39.8289 45.601L45.1359 34.848C45.365 34.3837 45.9272 34.1931 46.3915 34.4222C46.5764 34.5135 46.726 34.6631 46.8173 34.848L52.1242 45.601L63.9909 47.3254C64.5033 47.3998 64.8583 47.8756 64.7838 48.3879C64.7542 48.592 64.6581 48.7806 64.5105 48.9245L55.9237 57.2945L57.9507 69.1133C58.0382 69.6236 57.6955 70.1082 57.1852 70.1958C56.982 70.2306 56.773 70.1975 56.5905 70.1016L45.9766 64.5215Z" fill="#CB2026"/>
</svg>
