<svg width="100" height="100" viewBox="0 0 100 100" fill="none" xmlns="http://www.w3.org/2000/svg">
<path fill-rule="evenodd" clip-rule="evenodd" d="M8.67838 87.8162C6.94852 87.8162 5.54608 86.4139 5.54608 84.684C5.54608 82.9541 6.94852 81.5518 8.67838 81.5518H91.3023C93.0322 81.5518 94.4346 82.9541 94.4346 84.684C94.4346 86.4139 93.0322 87.8162 91.3023 87.8162H8.67838Z" fill="#E4EBF7"/>
<path fill-rule="evenodd" clip-rule="evenodd" d="M8.00027 87.8163C6.64485 87.8163 5.54608 86.4139 5.54608 84.684H94.4345C94.4345 86.4139 93.3359 87.8163 91.9805 87.8163H8.00027Z" fill="#A3B5D6"/>
<path fill-rule="evenodd" clip-rule="evenodd" d="M61.9729 81.5518L59.5392 82.8164C58.9024 83.1474 58.2212 83.3177 57.5335 83.3177H41.493C40.6838 83.3177 39.8853 83.0819 39.1581 82.6286L37.4315 81.5518H61.9729Z" fill="#CCD7EE"/>
<path fill-rule="evenodd" clip-rule="evenodd" d="M92.1456 75.7271H7.85435C6.5368 75.7271 5.46875 74.6591 5.46875 73.3416V14.4967C5.46875 13.1791 6.5368 12.1111 7.85435 12.1111H92.1456C93.4632 12.1111 94.5312 13.1791 94.5312 14.4967V73.3416C94.5312 74.6591 93.4632 75.7271 92.1456 75.7271Z" fill="#E4EBF7"/>
<path fill-rule="evenodd" clip-rule="evenodd" d="M9.44083 71.9122C9.00168 71.9122 8.64563 71.5561 8.64563 71.117V16.8273C8.64563 16.3882 9.00168 16.0321 9.44083 16.0321H90.5456C90.9847 16.0321 91.3408 16.3882 91.3408 16.8273V71.117C91.3408 71.5561 90.9847 71.9122 90.5456 71.9122H9.44083Z" fill="#1E386B"/>
<path fill-rule="evenodd" clip-rule="evenodd" d="M91.3222 23.7669H8.73297V18.1904C8.73297 16.9808 9.73876 16 10.9793 16H89.0758C90.3165 16 91.3222 16.9808 91.3222 18.1904V23.7669Z" fill="#1E386B"/>
<path fill-rule="evenodd" clip-rule="evenodd" d="M14.5242 19.6467C14.5242 20.4058 13.8969 21.0213 13.1231 21.0213C12.3494 21.0213 11.7222 20.4058 11.7222 19.6467C11.7222 18.8875 12.3494 18.272 13.1231 18.272C13.8969 18.272 14.5242 18.8875 14.5242 19.6467Z" fill="#FF7946"/>
<path fill-rule="evenodd" clip-rule="evenodd" d="M19.7551 19.6467C19.7551 20.4058 19.1279 21.0213 18.3541 21.0213C17.5804 21.0213 16.9532 20.4058 16.9532 19.6467C16.9532 18.8875 17.5804 18.272 18.3541 18.272C19.1279 18.272 19.7551 18.8875 19.7551 19.6467Z" fill="#FAAD14"/>
<path fill-rule="evenodd" clip-rule="evenodd" d="M24.9861 19.6467C24.9861 20.4058 24.3589 21.0213 23.5851 21.0213C22.8114 21.0213 22.1842 20.4058 22.1842 19.6467C22.1842 18.8875 22.8114 18.272 23.5851 18.272C24.3589 18.272 24.9861 18.8875 24.9861 19.6467Z" fill="#7CB305"/>
<path d="M85.9885 27.4408H15.0115C14.4528 27.4408 14 27.8324 14 28.3155V67.5661C14 68.0492 14.4528 68.4408 15.0115 68.4408H85.9885C86.5471 68.4408 87 68.0492 87 67.5661V28.3155C87 27.8324 86.5471 27.4408 85.9885 27.4408Z" fill="white"/>
<g clip-path="url(#clip0_1886_2032)">
<path d="M40.9072 44.2609L43.4182 55.2058H62.1953L64.7064 44.2609H47.5611H40.9072Z" fill="#E4EBF7"/>
<path d="M34.8641 38.3936C36.8619 38.3936 38.569 39.7549 39.0126 41.7031L42.3124 56.1982H63.3007L66.3329 42.8809H47.5614C47.2501 42.8809 46.9969 42.6277 46.9969 42.3164C46.9972 42.0053 47.2502 41.7529 47.5614 41.7529H67.0399C67.2118 41.753 67.3738 41.8313 67.4803 41.9648C67.5606 42.0654 67.6035 42.1896 67.6034 42.3164L67.5887 42.4424L64.3007 56.8867C64.2424 57.1432 64.0141 57.3252 63.7509 57.3252H41.8622C41.5993 57.325 41.3706 57.1433 41.3124 56.8867L37.913 41.9531C37.5869 40.5204 36.3334 39.5215 34.8641 39.5215H32.8173C32.506 39.5214 32.2538 39.2683 32.2538 38.957C32.2539 38.6459 32.5061 38.3937 32.8173 38.3936H34.8641Z" fill="#1E386B" stroke="#1E386B" stroke-width="0.35"/>
<path d="M63.7263 56.198C64.038 56.198 64.2897 56.4499 64.2898 56.7615C64.2898 57.0732 64.038 57.3259 63.7263 57.3259H39.988C38.8204 57.3259 37.8699 58.2765 37.8699 59.4441C37.87 60.6116 38.8204 61.5613 39.988 61.5613C40.2991 61.5614 40.5515 61.814 40.5515 62.1257C40.5515 62.4374 40.2991 62.6891 39.988 62.6892C38.1983 62.6892 36.7421 61.2339 36.7419 59.4441C36.7419 57.6542 38.1978 56.198 39.988 56.198H63.7263Z" fill="#1E386B" stroke="#1E386B" stroke-width="0.35"/>
<path d="M60.9826 59.0952C62.6537 59.0953 64.0128 60.4544 64.0129 62.1255C64.0129 63.7967 62.6538 65.1556 60.9826 65.1558C59.3117 65.1558 57.9523 63.7967 57.9523 62.1255C57.9524 60.4543 59.3118 59.0952 60.9826 59.0952Z" fill="#1E386B" stroke="#1E386B" stroke-width="0.35"/>
<path d="M45.6351 59.0952C47.3062 59.0953 48.6653 60.4544 48.6654 62.1255C48.6654 63.7967 47.3063 65.1556 45.6351 65.1558C43.9642 65.1558 42.6049 63.7967 42.6049 62.1255C42.6049 60.4543 43.9643 59.0952 45.6351 59.0952Z" fill="#1E386B" stroke="#1E386B" stroke-width="0.35"/>
<path d="M58.5944 61.5752C58.7818 61.5752 58.9602 61.6201 59.0974 61.7021C59.231 61.7823 59.353 61.9175 59.3532 62.0996C59.3532 62.2819 59.2311 62.4178 59.0974 62.498C58.9602 62.5801 58.7818 62.625 58.5944 62.625H48.2126C48.0253 62.625 47.8468 62.5802 47.7097 62.498C47.5759 62.4179 47.4538 62.2821 47.4538 62.0996C47.454 61.9173 47.576 61.7822 47.7097 61.7021C47.8468 61.62 48.0253 61.5752 48.2126 61.5752H58.5944Z" fill="#1E386B" stroke="#1E386B" stroke-width="0.35"/>
<path d="M63.7258 36.3799C64.0375 36.3799 64.2901 36.6323 64.2902 36.9434V42.3164C64.2902 42.6281 64.0375 42.8799 63.7258 42.8799H53.4396C53.1279 42.8798 52.8762 42.6275 52.8762 42.3164V36.9434C52.8763 36.6323 53.128 36.38 53.4396 36.3799H63.7258ZM54.0041 41.7529H63.1623V37.5078H54.0041V41.7529Z" fill="#1E386B" stroke="#1E386B" stroke-width="0.35"/>
<path d="M56.7408 33.8439C57.0524 33.8441 57.3042 34.0964 57.3043 34.4073V36.9435C57.3043 37.2545 57.0525 37.5067 56.7408 37.507C56.429 37.507 56.1764 37.2547 56.1764 36.9435V34.9718H43.8082V42.3165C43.8082 42.6283 43.5549 42.88 43.2438 42.88C42.9326 42.8799 42.6804 42.6277 42.6803 42.3165V34.4073C42.6804 34.0962 42.9326 33.844 43.2438 33.8439H56.7408Z" fill="#1E386B" stroke="#1E386B" stroke-width="0.35"/>
<path d="M62.1704 38.499H54.9954V40.7608H62.1704V38.499Z" fill="#FAAD14"/>
</g>
<defs>
<clipPath id="clip0_1886_2032">
<rect width="35" height="35" fill="white" transform="translate(32.4286 32)"/>
</clipPath>
</defs>
</svg>
