<svg width="100" height="100" viewBox="0 0 100 100" fill="none" xmlns="http://www.w3.org/2000/svg">
<path fill-rule="evenodd" clip-rule="evenodd" d="M8.67838 87.8162C6.94852 87.8162 5.54608 86.4139 5.54608 84.684C5.54608 82.9541 6.94852 81.5518 8.67838 81.5518H91.3023C93.0322 81.5518 94.4346 82.9541 94.4346 84.684C94.4346 86.4139 93.0322 87.8162 91.3023 87.8162H8.67838Z" fill="#E4EBF7"/>
<path fill-rule="evenodd" clip-rule="evenodd" d="M8.00027 87.8163C6.64485 87.8163 5.54608 86.4139 5.54608 84.684H94.4345C94.4345 86.4139 93.3359 87.8163 91.9805 87.8163H8.00027Z" fill="#A3B5D6"/>
<path fill-rule="evenodd" clip-rule="evenodd" d="M61.9729 81.5518L59.5392 82.8164C58.9024 83.1474 58.2212 83.3177 57.5335 83.3177H41.493C40.6838 83.3177 39.8853 83.0819 39.1581 82.6286L37.4315 81.5518H61.9729Z" fill="#CCD7EE"/>
<path fill-rule="evenodd" clip-rule="evenodd" d="M92.1456 75.7271H7.85435C6.5368 75.7271 5.46875 74.6591 5.46875 73.3416V14.4967C5.46875 13.1791 6.5368 12.1111 7.85435 12.1111H92.1456C93.4632 12.1111 94.5312 13.1791 94.5312 14.4967V73.3416C94.5312 74.6591 93.4632 75.7271 92.1456 75.7271Z" fill="#E4EBF7"/>
<path fill-rule="evenodd" clip-rule="evenodd" d="M9.44083 71.9122C9.00168 71.9122 8.64563 71.5561 8.64563 71.117V16.8273C8.64563 16.3882 9.00168 16.0321 9.44083 16.0321H90.5456C90.9847 16.0321 91.3408 16.3882 91.3408 16.8273V71.117C91.3408 71.5561 90.9847 71.9122 90.5456 71.9122H9.44083Z" fill="#1E386B"/>
<path fill-rule="evenodd" clip-rule="evenodd" d="M53.8218 44.9291C48.0752 44.9291 43.4166 49.5876 43.4166 55.3342V55.3608C43.4166 61.1074 48.0752 65.7659 53.8218 65.7659H69.1663C69.7395 65.7659 70.3019 65.7196 70.8499 65.6304L73.8227 68.5019C73.9036 68.58 74.0116 68.6236 74.1239 68.6236C74.3634 68.6236 74.5575 68.4295 74.5575 68.1901L74.5577 64.262C77.5634 62.4376 79.5715 59.1337 79.5715 55.3608V55.3342C79.5715 49.5876 74.9129 44.9291 69.1663 44.9291H53.8218Z" fill="white"/>
<path d="M56.3457 20H34.436C26.2265 20 19.5715 26.6551 19.5715 34.8645C19.5715 43.074 26.2265 49.729 34.436 49.729H56.3457C64.5551 49.729 71.2102 43.074 71.2102 34.8645C71.2102 26.6551 64.5551 20 56.3457 20Z" fill="#CB2026"/>
<path fill-rule="evenodd" clip-rule="evenodd" d="M26.7328 45.4052V53.1869C26.7328 53.5289 27.0101 53.8062 27.3521 53.8062C27.5126 53.8062 27.6667 53.744 27.7822 53.6326L33.5006 48.115L26.7328 45.4052Z" fill="#CB2026"/>
<path d="M35.4424 36.7226C36.7679 36.7226 37.8424 35.6481 37.8424 34.3226C37.8424 32.9971 36.7679 31.9226 35.4424 31.9226C34.1169 31.9226 33.0424 32.9971 33.0424 34.3226C33.0424 35.6481 34.1169 36.7226 35.4424 36.7226Z" fill="white"/>
<path d="M45.2747 36.7226C46.6002 36.7226 47.6747 35.6481 47.6747 34.3226C47.6747 32.9971 46.6002 31.9226 45.2747 31.9226C43.9492 31.9226 42.8747 32.9971 42.8747 34.3226C42.8747 35.6481 43.9492 36.7226 45.2747 36.7226Z" fill="white"/>
<path d="M55.3392 36.7226C56.6647 36.7226 57.7392 35.6481 57.7392 34.3226C57.7392 32.9971 56.6647 31.9226 55.3392 31.9226C54.0137 31.9226 52.9392 32.9971 52.9392 34.3226C52.9392 35.6481 54.0137 36.7226 55.3392 36.7226Z" fill="white"/>
</svg>
