<svg width="53" height="39" viewBox="0 0 53 39" fill="none" xmlns="http://www.w3.org/2000/svg">
<path d="M46.2 19.95C47.8 21.95 49.25 23.6 50.55 24.9C51.85 26.2 52.5 27.95 52.5 30.15C52.5 32.45 51.95 34.35 50.85 35.85C49.75 37.35 47.7 38.1 44.7 38.1C43.1 38.1 41.8 37.6 40.8 36.6C39.9 35.6 39.45 34.25 39.45 32.55C37.95 32.45 36.5 31.85 35.1 30.75C33.7 29.55 33 28.05 33 26.25C33 23.75 33.65 21 34.95 18C36.35 14.9 37.9 12.05 39.6 9.45C41.4 6.74999 43.15 4.49999 44.85 2.69999C46.55 0.899998 47.8 0 48.6 0C49.1 0 49.75 0.199998 50.55 0.599993C51.35 0.899995 51.75 1.34999 51.75 1.94999C51.75 2.25 51.6 2.55 51.3 2.85C50.9 3.25 50.35 3.95 49.65 4.95C48.95 5.95 48.25 7.1 47.55 8.4C46.85 9.6 46.25 10.9 45.75 12.3C45.25 13.7 45 15 45 16.2C45 17.8 45.4 19.05 46.2 19.95ZM13.2 19.95C14.8 21.95 16.25 23.6 17.55 24.9C18.85 26.2 19.5 27.95 19.5 30.15C19.5 32.45 18.95 34.35 17.85 35.85C16.75 37.35 14.7 38.1 11.7 38.1C10.1 38.1 8.8 37.6 7.8 36.6C6.9 35.6 6.45 34.25 6.45 32.55C4.95 32.45 3.5 31.85 2.1 30.75C0.7 29.55 0 28.05 0 26.25C0 23.75 0.65 21 1.95 18C3.35 14.9 4.9 12.05 6.6 9.45C8.4 6.74999 10.15 4.49999 11.85 2.69999C13.55 0.899998 14.8 0 15.6 0C16.1 0 16.75 0.199998 17.55 0.599993C18.35 0.899995 18.75 1.34999 18.75 1.94999C18.75 2.25 18.6 2.55 18.3 2.85C17.9 3.25 17.35 3.95 16.65 4.95C15.95 5.95 15.25 7.1 14.55 8.4C13.85 9.6 13.25 10.9 12.75 12.3C12.25 13.7 12 15 12 16.2C12 17.8 12.4 19.05 13.2 19.95Z" fill="#1E386B"/>
</svg>
