<svg width="24" height="14" viewBox="-5.5 0 24 14" fill="none" xmlns="http://www.w3.org/2000/svg">
<path d="M11.9911 6.12098L1.49109 0.12785C1.3141 0.0285655 1.11109 -0.0145194 0.909025 0.00431843C0.706964 0.0231563 0.515417 0.103025 0.359828 0.233316C0.204239 0.363606 0.0919734 0.538151 0.037944 0.733764C-0.0160854 0.929376 -0.00932097 1.1368 0.0573386 1.32847L1.99484 6.98285C1.99459 6.98493 1.99459 6.98702 1.99484 6.9891C1.99449 6.99117 1.99449 6.99328 1.99484 6.99535L0.0573386 12.6622C0.00395479 12.813 -0.0124812 12.9744 0.00941007 13.1328C0.0313014 13.2913 0.0908812 13.4422 0.183149 13.5728C0.275417 13.7035 0.39768 13.8101 0.539677 13.8837C0.681675 13.9574 0.839262 13.9958 0.999214 13.996C1.17276 13.9955 1.34325 13.9503 1.49421 13.8647L11.9886 7.8616C12.1434 7.77489 12.2723 7.64854 12.3622 7.49554C12.452 7.34254 12.4996 7.16838 12.4999 6.99095C12.5002 6.81352 12.4533 6.6392 12.364 6.48587C12.2747 6.33255 12.1462 6.20574 11.9917 6.11847L11.9911 6.12098ZM0.999214 12.996V12.9903L2.88296 7.49598H6.49921C6.63182 7.49598 6.759 7.4433 6.85277 7.34953C6.94654 7.25576 6.99921 7.12858 6.99921 6.99598C6.99921 6.86337 6.94654 6.73619 6.85277 6.64242C6.759 6.54865 6.63182 6.49598 6.49921 6.49598H2.88796L1.00296 1.00347L0.999214 0.995975L11.4992 6.98535L0.999214 12.996Z" fill="#1E386B"/>
</svg>
