<svg width="419" height="302" viewBox="0 0 419 302" fill="none" xmlns="http://www.w3.org/2000/svg">
<path d="M339.5 285.908H10.5C4.70101 285.908 0 289.49 0 293.908C0 298.326 4.70101 301.908 10.5 301.908H339.5C345.299 301.908 350 298.326 350 293.908C350 289.49 345.299 285.908 339.5 285.908Z" fill="#F7F5F9"/>
<circle cx="222.041" cy="137.594" r="133.127" fill="white"/>
<path fill-rule="evenodd" clip-rule="evenodd" d="M418.304 20.4234H255V5.75982C255 2.57896 257.574 0 260.748 0H412.556C415.73 0 418.304 2.57896 418.304 5.75982V20.4234Z" fill="#CB2026"/>
<path fill-rule="evenodd" clip-rule="evenodd" d="M412.556 161.611H260.748C257.574 161.611 255 159.032 255 155.851V18.7058H418.304V155.851C418.304 159.032 415.73 161.611 412.556 161.611Z" fill="#F7F5F9"/>
<path fill-rule="evenodd" clip-rule="evenodd" d="M268.271 9.50448C268.271 11.5007 266.656 13.1192 264.664 13.1192C262.672 13.1192 261.057 11.5007 261.057 9.50448C261.057 7.50822 262.672 5.88971 264.664 5.88971C266.656 5.88971 268.271 7.50822 268.271 9.50448Z" fill="#FF7946"/>
<path fill-rule="evenodd" clip-rule="evenodd" d="M281.742 9.50448C281.742 11.5007 280.127 13.1192 278.135 13.1192C276.143 13.1192 274.528 11.5007 274.528 9.50448C274.528 7.50822 276.143 5.88971 278.135 5.88971C280.127 5.88971 281.742 7.50822 281.742 9.50448Z" fill="#FAAD14"/>
<path fill-rule="evenodd" clip-rule="evenodd" d="M295.213 9.50448C295.213 11.5007 293.598 13.1192 291.606 13.1192C289.614 13.1192 287.999 11.5007 287.999 9.50448C287.999 7.50822 289.614 5.88971 291.606 5.88971C293.598 5.88971 295.213 7.50822 295.213 9.50448Z" fill="#7CB305"/>
<path fill-rule="evenodd" clip-rule="evenodd" d="M272.65 142.172C271.66 142.172 270.857 141.368 270.857 140.377V36.2663C270.857 35.2746 271.66 34.4705 272.65 34.4705H402.438C403.428 34.4705 404.231 35.2746 404.231 36.2663V140.377C404.231 141.368 403.428 142.172 402.438 142.172H272.65Z" fill="white"/>
<path d="M315.932 79.85C316.679 79.2109 317.809 79.3542 318.374 80.1488L318.404 80.1913L344.521 119.339L364.723 105.143C364.963 104.975 365.242 104.873 365.532 104.847L365.595 104.842L392.288 103.449C393.208 103.401 393.992 104.108 394.04 105.028C394.088 105.931 393.406 106.704 392.51 106.777L392.462 106.78L366.248 108.148L345.041 123.049C344.288 123.578 343.253 123.397 342.724 122.652L342.695 122.611L316.673 83.6059L286.26 109.644C285.573 110.232 284.547 110.164 283.942 109.5L283.909 109.462C283.321 108.775 283.389 107.749 284.053 107.145L284.091 107.111L315.932 79.85Z" fill="#FF7946"/>
<path d="M388.335 56.2242C388.848 55.4593 389.884 55.2551 390.649 55.7681C391.4 56.2717 391.61 57.2794 391.132 58.0397L391.105 58.0817L367.356 93.4937C366.761 94.3818 365.499 94.4847 364.767 93.718L364.731 93.6796L337.587 63.4781L318.771 76.1736C318.506 76.3527 318.195 76.4514 317.875 76.4584L317.812 76.4586L285.148 75.9247C284.227 75.9096 283.493 75.1509 283.508 74.2301C283.523 73.3255 284.255 72.6009 285.154 72.59L285.203 72.5901L317.341 73.1153L336.925 59.902C337.6 59.4464 338.503 59.5464 339.063 60.1317L339.098 60.1697L365.78 89.8569L388.335 56.2242Z" fill="#FAAD14"/>
<path d="M347.194 78.903C347.61 78.5391 348.178 78.4058 348.711 78.5442L348.766 78.5595L366.155 83.7175L391.785 79.6338C392.678 79.4915 393.519 80.0872 393.686 80.9706L393.694 81.0182C393.836 81.9117 393.241 82.7524 392.357 82.919L392.31 82.9273L366.307 87.0705C366.083 87.1062 365.855 87.0958 365.635 87.0404L365.57 87.0225L348.698 82.0179L319.381 107.658C318.841 108.131 318.062 108.204 317.445 107.845L317.399 107.817L282.375 85.9024C281.594 85.4139 281.357 84.3851 281.846 83.6044C282.326 82.8378 283.326 82.5956 284.101 83.0493L284.144 83.0752L318.118 104.333L347.194 78.903Z" fill="#597EF7"/>
<path fill-rule="evenodd" clip-rule="evenodd" d="M317.123 48.1H284.268C282.923 48.1 281.823 46.9972 281.823 45.6494C281.823 44.3014 282.923 43.1989 284.268 43.1989H317.123C318.468 43.1989 319.568 44.3014 319.568 45.6494C319.568 46.9972 318.468 48.1 317.123 48.1Z" fill="#F7F5F9"/>
<path fill-rule="evenodd" clip-rule="evenodd" d="M298.127 59.6578H285.9C284.549 59.6578 283.454 58.5605 283.454 57.2072C283.454 55.8536 284.549 54.7566 285.9 54.7566H298.127C299.478 54.7566 300.572 55.8536 300.572 57.2072C300.572 58.5605 299.478 59.6578 298.127 59.6578Z" fill="#F7F5F9"/>
<path d="M386.718 112.983C380.991 112.983 376.362 117.688 376.362 123.476C376.362 129.265 380.991 133.97 386.718 133.97C392.444 133.97 397.073 129.265 397.073 123.476C397.073 117.688 392.444 112.983 386.718 112.983ZM386.718 116.93C390.249 116.93 393.126 119.854 393.126 123.476C393.126 127.099 390.25 130.022 386.718 130.022C383.185 130.022 380.309 127.099 380.309 123.476C380.309 119.854 383.185 116.93 386.718 116.93Z" fill="#F7F5F9"/>
<path d="M393.605 117.942C394.607 117.513 395.767 117.978 396.196 118.98C396.772 120.326 397.073 121.792 397.073 123.299C397.073 124.531 396.871 125.738 396.48 126.877C396.127 127.908 395.004 128.457 393.973 128.103C392.959 127.755 392.411 126.663 392.73 125.646L392.747 125.596C392.996 124.869 393.126 124.095 393.126 123.299C393.126 122.367 392.949 121.468 392.611 120.64L392.566 120.533C392.138 119.531 392.602 118.371 393.605 117.942Z" fill="#597EF7"/>
<path fill-rule="evenodd" clip-rule="evenodd" d="M91.9115 214.19C91.9115 218.211 88.6522 221.47 84.6319 221.47C80.6115 221.47 77.3518 218.211 77.3518 214.19C77.3518 210.17 80.6115 206.91 84.6319 206.91C88.6522 206.91 91.9115 210.17 91.9115 214.19Z" fill="black"/>
<path fill-rule="evenodd" clip-rule="evenodd" d="M83.2658 279.708H86.0837V216.364H83.2658V279.708Z" fill="black"/>
<path fill-rule="evenodd" clip-rule="evenodd" d="M83.2661 279.708L50.4459 285.175L48.3277 283.645L83.2661 273.354V279.708Z" fill="black"/>
<path fill-rule="evenodd" clip-rule="evenodd" d="M86.0839 279.708L118.904 285.175L121.022 283.645L86.0839 273.354V279.708Z" fill="black"/>
<path fill-rule="evenodd" clip-rule="evenodd" d="M82.4393 287.058H86.9105V277.879H82.4393V287.058Z" fill="black"/>
<path fill-rule="evenodd" clip-rule="evenodd" d="M53.521 287.179C53.521 289.275 51.8219 290.974 49.7264 290.974C47.6306 290.974 45.9315 289.275 45.9315 287.179C45.9315 285.084 47.6306 283.385 49.7264 283.385C51.8219 283.385 53.521 285.084 53.521 287.179Z" fill="black"/>
<path fill-rule="evenodd" clip-rule="evenodd" d="M88.4697 287.179C88.4697 289.275 86.7706 290.974 84.6748 290.974C82.5793 290.974 80.8802 289.275 80.8802 287.179C80.8802 285.084 82.5793 283.385 84.6748 283.385C86.7706 283.385 88.4697 285.084 88.4697 287.179Z" fill="black"/>
<path fill-rule="evenodd" clip-rule="evenodd" d="M123.751 287.179C123.751 289.275 122.051 290.974 119.956 290.974C117.86 290.974 116.161 289.275 116.161 287.179C116.161 285.084 117.86 283.385 119.956 283.385C122.051 283.385 123.751 285.084 123.751 287.179Z" fill="black"/>
<path fill-rule="evenodd" clip-rule="evenodd" d="M130.264 212.854H39C39 203.883 46.2714 196.612 55.2414 196.612H114.022C122.992 196.612 130.264 203.883 130.264 212.854Z" fill="#CB2026"/>
<path fill-rule="evenodd" clip-rule="evenodd" d="M113.534 152.794C113.534 152.794 112.849 164.191 102.433 163.386C91.8113 162.566 92.9533 151.061 92.9533 151.061C92.9533 151.061 92.4369 143.911 93.1773 134.295C93.7565 126.781 94.646 116.967 95.4745 112.195C96.3672 107.045 101.107 103.646 105.986 104.023C113.401 104.595 115.915 110.577 115.752 115.775C115.592 120.83 115.353 129.148 115.053 134.715C114.478 145.421 113.534 152.794 113.534 152.794Z" fill="#ADC6FF"/>
<path fill-rule="evenodd" clip-rule="evenodd" d="M136.787 166.695C138.041 171.381 148.466 169.79 148.466 169.79L153.575 173.955C154.385 174.516 154.732 173.969 155.173 174.07C156.36 174.34 156.644 173.093 156.644 173.093C157.098 172.991 157.685 173.455 158.12 172.366C158.12 172.366 158.966 172.496 159.254 171.499C159.362 171.129 157.731 166.109 156.757 163.173C156.329 161.884 155.214 160.947 153.873 160.744L141.396 158.863C141.396 158.863 135.101 160.39 136.787 166.695Z" fill="#ECD8D2"/>
<path d="M147.7 166.519C147.557 166.458 147.392 166.524 147.331 166.667C147.277 166.794 147.324 166.939 147.435 167.012L147.479 167.036L151.165 168.611L154.844 173.684C154.925 173.795 155.073 173.83 155.193 173.772L155.236 173.746C155.348 173.665 155.382 173.517 155.324 173.397L155.298 173.353L151.573 168.218C151.553 168.191 151.529 168.167 151.501 168.149L151.456 168.125L147.7 166.519Z" fill="#EAD8D8"/>
<path d="M150.205 164.971C150.07 164.895 149.899 164.943 149.823 165.078C149.755 165.198 149.786 165.347 149.888 165.432L149.93 165.461L153.313 167.369L156.312 172.621C156.38 172.741 156.523 172.791 156.649 172.746L156.695 172.725C156.815 172.657 156.865 172.513 156.82 172.388L156.799 172.342L153.762 167.023C153.745 166.994 153.723 166.968 153.697 166.946L153.656 166.918L150.205 164.971Z" fill="#EAD8D8"/>
<path d="M152.633 163.54C152.511 163.444 152.335 163.465 152.239 163.586C152.153 163.694 152.16 163.846 152.248 163.946L152.285 163.981L154.563 165.785L157.299 171.421C157.36 171.545 157.499 171.605 157.627 171.569L157.674 171.551C157.798 171.491 157.858 171.351 157.822 171.223L157.804 171.176L155.039 165.482C155.027 165.457 155.011 165.433 154.992 165.413L154.961 165.384L152.633 163.54Z" fill="#EAD8D8"/>
<path fill-rule="evenodd" clip-rule="evenodd" d="M103.7 144.839C103.7 144.839 93.2024 142.629 91.0707 151.352C88.873 160.348 98.8442 162.935 98.8442 162.935C98.8442 162.935 105.907 164.583 114.601 166.652C119.909 167.914 125.798 169.192 130.207 169.505C134.98 169.844 136.06 167.4 137.126 163.038C138.392 157.858 138.389 155.589 133.969 153.813C129.756 152.121 123.834 150.597 119.297 149.207C110.647 146.558 103.7 144.839 103.7 144.839Z" fill="#ADC6FF"/>
<path fill-rule="evenodd" clip-rule="evenodd" d="M139.326 168.798L141.79 158.712L135.161 156.318L132.341 167.857L139.326 168.798Z" fill="#ADC6FF"/>
<path fill-rule="evenodd" clip-rule="evenodd" d="M146.587 187.253C125.738 181.831 104.131 176.437 86.8441 172.541C86.8441 172.541 73.7979 171.828 73.108 183.75C72.4327 195.436 86.5265 198.908 86.5265 198.908L143.143 207.719C143.143 207.719 152.379 209.051 153.923 198.79C155.329 189.43 146.587 187.253 146.587 187.253Z" fill="#597EF7"/>
<path fill-rule="evenodd" clip-rule="evenodd" d="M142.914 242.487C139.212 241.744 135.786 244.648 135.918 248.426C136.068 252.773 136.242 258.645 136.343 264.971C136.447 271.482 136.546 276.877 137.011 277.562C139.062 280.582 143.158 281.705 147.368 284.696C150.7 287.063 151.275 288.188 155.52 288.984C161.538 290.113 158.733 287.557 152.051 279.472C146.097 272.269 146.498 268.891 146.498 268.891L147.606 248.549C147.764 245.642 145.765 243.06 142.914 242.487Z" fill="#ECD8D2"/>
<path fill-rule="evenodd" clip-rule="evenodd" d="M151.446 277.559C155.794 282.398 160.777 286.223 160.657 288.52C160.535 290.819 158.726 292.894 151.24 290.234C146.117 288.414 147.584 287.313 142.694 284.128C140.252 282.536 139.361 282.708 137.11 280.856C135.819 279.195 136.4 271.124 136.4 271.124L144.97 280.527C144.97 280.527 142.742 276.148 144.573 275.198C146.403 274.249 148.089 273.603 149.169 274.382C150.248 275.16 151.446 277.559 151.446 277.559Z" fill="black"/>
<path fill-rule="evenodd" clip-rule="evenodd" d="M155.689 198.95C152.878 233.109 149.68 266.533 149.68 266.533L135.236 266.523L132.98 197.721C132.98 197.721 134.247 189.826 145.403 188.389C155.664 187.067 155.689 198.95 155.689 198.95Z" fill="#597EF7"/>
<path fill-rule="evenodd" clip-rule="evenodd" d="M52.0992 187.986C53.3992 174.207 53.7438 167.123 55.2866 164.535C88.4528 165.484 96.7151 165.047 96.7151 165.047C96.7151 165.047 97.0531 169.921 98.5812 184.925C98.5812 184.925 88.3697 203.555 75.1932 203.555C63.3134 203.555 52.0992 187.986 52.0992 187.986Z" fill="#597EF7"/>
<path fill-rule="evenodd" clip-rule="evenodd" d="M55.2867 164.535L55.9139 158.286L96.5262 158.774L96.7151 165.033C96.7151 165.033 75.2218 165.861 55.2867 164.535Z" fill="#597EF7"/>
<path fill-rule="evenodd" clip-rule="evenodd" d="M73.5447 81.8094C73.5447 81.8094 67.9038 78.348 70.1626 72.1991C67.8752 66.7027 71.0904 63.5431 71.0904 63.5431C71.0904 63.5431 71.5563 56.5036 76.2377 56.3413C79.5351 49.2634 87.5985 52.5095 87.5985 52.5095C87.5985 52.5095 93.0619 48.4821 100.276 54.7394C105.757 55.2133 105.915 52.4842 107.584 54.4719C109.254 56.4587 109.819 60.9437 107.378 62.575C111.351 64.5308 107.326 70.8061 107.326 70.8061C107.326 70.8061 108.466 74.6133 103.642 77.1906C98.8177 79.7688 96.589 88.5708 88.6648 90.9761C81.0396 93.2907 73.2205 90.49 73.5447 81.8094Z" fill="black"/>
<path fill-rule="evenodd" clip-rule="evenodd" d="M75.8452 95.173L78.1374 83.1273L94.1112 85.9616L93.7178 96.5889C93.5426 101.333 89.495 104.999 84.7623 104.699C84.6719 104.694 84.5823 104.688 84.4911 104.682C79.6517 104.377 75.2554 99.9925 75.8452 95.173Z" fill="#ECD8D2"/>
<path fill-rule="evenodd" clip-rule="evenodd" d="M82.4421 64.737C82.4421 64.737 83.3072 69.0597 79.9691 70.0458C80.444 75.6099 78.0491 75.0838 78.0491 75.0838C78.0491 75.0838 74.2874 70.0931 71.5724 74.3465C68.9927 78.387 73.235 84.4796 77.2777 83.6192C83.8008 94.4855 97.2047 95.2546 101.766 88.2861C104.537 84.0514 103.661 77.8088 104.053 74.8897C105.017 67.7164 103.73 65.5167 103.73 65.5167C103.73 65.5167 100.974 66.0542 98.0135 63.7477C94.7487 66.082 90.1741 63.636 90.1741 63.636C90.1741 63.636 87.0086 67.5395 82.4421 64.737Z" fill="#ECD8D2"/>
<path d="M74.9865 75.2334C74.0641 75.0362 73.4282 75.2655 73.0785 75.784C72.922 76.0162 72.8571 76.246 72.8426 76.4148C72.828 76.5831 72.9525 76.7313 73.1206 76.7458C73.2887 76.7604 73.4367 76.6357 73.4512 76.4674C73.4576 76.3933 73.4956 76.2587 73.5849 76.1263C73.7898 75.8225 74.1718 75.6847 74.8588 75.8316C75.5072 75.9704 76.0441 76.4717 76.3546 77.1407C76.4845 77.4206 76.559 77.7038 76.5675 77.9276C76.5737 78.0909 76.5452 78.1745 76.5393 78.1777C75.9096 78.5234 75.4174 79.0227 75.2538 79.5747C75.0439 80.2825 75.3834 80.9736 76.2746 81.5494C76.4164 81.6409 76.6054 81.6001 76.6969 81.4582C76.7883 81.3162 76.7476 81.1269 76.6058 81.0354C75.9247 80.5953 75.715 80.1685 75.8395 79.7488C75.9498 79.3766 76.3315 78.9895 76.8329 78.7142C77.8474 78.158 76.6559 75.5906 74.9865 75.2334Z" fill="#EAD8D8"/>
<path d="M75.8866 77.4816C75.6044 77.4475 75.3123 77.437 75.0338 77.465C74.2772 77.541 73.7674 77.8937 73.7704 78.6014C73.7711 78.7703 73.9084 78.9066 74.0771 78.9059C74.2458 78.9052 74.382 78.7677 74.3813 78.5988C74.38 78.2827 74.6122 78.1221 75.0948 78.0736C75.3224 78.0508 75.5721 78.0597 75.8133 78.0889L75.9242 78.1039C75.9548 78.1085 75.9786 78.1126 75.9948 78.1157C76.1604 78.1478 76.3206 78.0394 76.3527 77.8736C76.3848 77.7078 76.2765 77.5473 76.1109 77.5152L75.9961 77.4962C75.9638 77.4914 75.9271 77.4865 75.8866 77.4816Z" fill="#EAD8D8"/>
<path fill-rule="evenodd" clip-rule="evenodd" d="M93.034 74.8106C92.7798 77.7468 90.1985 79.9212 87.2652 79.6684C84.3327 79.4147 82.1611 76.8285 82.4144 73.8923C82.6669 70.9561 85.2499 68.7809 88.1824 69.0345C91.1157 69.2882 93.2873 71.8745 93.034 74.8106Z" fill="white"/>
<path d="M88.2147 68.6599C91.3544 68.9314 93.6793 71.6997 93.4081 74.843C93.136 77.9864 90.3725 80.3137 87.233 80.043C84.0939 79.7715 81.7691 77.0031 82.0403 73.8599C82.3061 70.7685 84.9855 68.465 88.0606 68.6487L88.2147 68.6599ZM82.7885 73.9245C82.553 76.6541 84.5718 79.058 87.2975 79.2938C90.0239 79.5288 92.4236 77.5079 92.6599 74.7782C92.8954 72.0487 90.8765 69.6449 88.1501 69.4091C85.4242 69.1733 83.0232 71.1954 82.7885 73.9245Z" fill="black"/>
<path fill-rule="evenodd" clip-rule="evenodd" d="M105.955 75.4268C105.701 78.363 103.119 80.5374 100.186 80.2846C97.2537 80.0309 95.0812 77.4446 95.3354 74.5084C95.5879 71.5722 98.1709 69.397 101.103 69.6507C104.037 69.9043 106.208 72.4906 105.955 75.4268Z" fill="white"/>
<path d="M101.136 69.276C104.275 69.5475 106.6 72.3158 106.329 75.4591C106.057 78.6025 103.294 80.9297 100.154 80.6591C97.0146 80.3876 94.6892 77.6189 94.9613 74.4759C95.2272 71.3846 97.9066 69.081 100.982 69.2647L101.136 69.276ZM95.7095 74.5406C95.4733 77.2699 97.4925 79.6741 100.219 79.9099C102.945 80.1449 105.345 78.124 105.581 75.3943C105.816 72.6648 103.797 70.261 101.071 70.0252C98.3452 69.7894 95.9443 71.8114 95.7095 74.5406Z" fill="black"/>
<path d="M94.3446 73.9389C94.1979 74.0222 94.1464 74.2089 94.2296 74.3558L94.3068 74.4954C94.3691 74.6096 94.4386 74.7399 94.5135 74.884C94.7278 75.2959 94.9421 75.7346 95.1418 76.1812C95.3218 76.5836 95.4812 76.9731 95.6145 77.3422C96.0631 78.5849 96.1665 79.4843 95.8848 79.8091C95.5688 80.1735 95.1564 80.3886 94.662 80.4777C94.1586 80.5685 93.6085 80.5238 93.0738 80.3926C92.8725 80.3432 92.7232 80.2945 92.6449 80.2639C92.4878 80.2024 92.3107 80.2802 92.2493 80.4375C92.1879 80.5948 92.2656 80.7722 92.4227 80.8337L92.5274 80.8716C92.6288 80.906 92.7646 80.9465 92.9284 80.9867C93.5391 81.1366 94.1705 81.1879 94.7703 81.0798C95.3949 80.9671 95.9331 80.6865 96.3462 80.2101C96.836 79.6452 96.7148 78.5906 96.189 77.1342C96.0503 76.7499 95.8852 76.3466 95.6994 75.9312C95.4943 75.4727 95.2749 75.0234 95.0554 74.6014L94.9094 74.3251L94.761 74.0541C94.6778 73.9072 94.4914 73.8556 94.3446 73.9389Z" fill="#EAD8D8"/>
<path fill-rule="evenodd" clip-rule="evenodd" d="M88.7145 82.2014C88.7145 82.2014 93.5791 83.1883 97.1372 82.9298C97.1372 82.9298 95.851 86.3586 92.3777 85.6335C89.2937 84.9892 88.7145 82.2014 88.7145 82.2014Z" fill="white"/>
<path d="M88.7782 81.8864L89.4168 82.0055C89.9241 82.0953 90.4836 82.1851 91.0783 82.2689C92.3501 82.4482 93.6038 82.5751 94.7742 82.6266C95.629 82.6642 96.414 82.6601 97.114 82.6092C97.3475 82.5923 97.52 82.8233 97.4376 83.0427L97.3963 83.1446C97.3543 83.2421 97.2932 83.3701 97.2119 83.5207C97.0239 83.869 96.7902 84.217 96.507 84.5429C95.474 85.7315 94.0776 86.3166 92.3121 85.9481C91.042 85.6827 90.0713 85.0577 89.368 84.1851C89.0329 83.7694 88.7809 83.3247 88.5996 82.8795C88.4898 82.6097 88.4272 82.3963 88.4003 82.2668C88.3534 82.0409 88.5524 81.8406 88.7782 81.8864ZM89.3051 82.6384L89.1866 82.6166L89.194 82.6369C89.3529 83.027 89.5742 83.4176 89.8675 83.7815C90.4807 84.5423 91.3236 85.085 92.4432 85.3189C93.962 85.6359 95.1324 85.1456 96.0228 84.121L96.1677 83.946C96.3076 83.7687 96.4323 83.5853 96.5422 83.4004L96.6107 83.2799L96.6 83.2808C96.0245 83.3025 95.4046 83.2977 94.746 83.2687C93.5529 83.2162 92.2795 83.0873 90.9888 82.9054C90.3863 82.8204 89.8195 82.7294 89.3051 82.6384Z" fill="black"/>
<path d="M97.3491 67.8952C97.1958 67.8061 96.9993 67.8583 96.9104 68.0118C96.8214 68.1653 96.8736 68.362 97.0269 68.4511C98.6743 69.4082 100.777 69.7953 102.981 69.3888C103.155 69.3566 103.27 69.189 103.238 69.0145C103.206 68.84 103.039 68.7245 102.864 68.7567C100.814 69.135 98.8659 68.7764 97.3491 67.8952Z" fill="black"/>
<path d="M94.6578 72.7854C94.0534 72.7067 93.4159 72.7074 92.8166 72.7555L92.5855 72.7769L92.4848 72.7889L92.5841 73.5343L92.7976 73.5117C92.8223 73.5095 92.8487 73.5073 92.8765 73.5051C93.428 73.4609 94.0163 73.4601 94.561 73.5311C94.887 73.5735 95.178 73.6401 95.4248 73.7319L95.5444 73.78L95.8423 73.0896C95.5008 72.9419 95.1024 72.8432 94.6578 72.7854Z" fill="black"/>
<path d="M100.753 73.692C99.8384 73.6128 99.1698 74.0109 98.7452 74.6997C98.5213 75.063 98.4086 75.4214 98.367 75.6753C98.3334 75.8802 98.4721 76.0736 98.6768 76.1072C98.8815 76.1408 99.0746 76.0019 99.1081 75.797L99.1207 75.7363C99.1299 75.6976 99.1436 75.6468 99.1624 75.5869C99.2155 75.4182 99.2889 75.2495 99.3843 75.0946C99.6693 74.6323 100.079 74.3884 100.688 74.4412C101.244 74.4891 101.564 74.7715 101.736 75.2469C101.828 75.5014 101.864 75.7733 101.864 76.0084L101.86 76.1474C101.843 76.3543 101.996 76.5365 102.202 76.5544C102.392 76.5709 102.56 76.4435 102.601 76.2628L102.61 76.1951C102.61 76.1883 102.611 76.1782 102.612 76.1581C102.628 75.8094 102.589 75.3969 102.442 74.9911C102.177 74.2564 101.622 73.7669 100.753 73.692Z" fill="black"/>
<path d="M87.9787 72.5873C87.0645 72.5081 86.3958 72.9061 85.971 73.5949C85.7469 73.9582 85.634 74.3165 85.5923 74.5704C85.5587 74.7753 85.6973 74.9687 85.9019 75.0024C86.088 75.033 86.2646 74.9211 86.3204 74.7466L86.3568 74.5891C86.3649 74.5581 86.3752 74.5222 86.3878 74.4824C86.441 74.3136 86.5144 74.1449 86.61 73.99C86.8952 73.5276 87.305 73.2837 87.9142 73.3365C88.4697 73.3844 88.7897 73.6667 88.9615 74.1422C89.0536 74.3969 89.0896 74.6689 89.0904 74.904L89.0865 75.0428C89.0687 75.2497 89.2218 75.4319 89.4284 75.4497C89.6178 75.466 89.7865 75.3386 89.827 75.1579L89.8369 75.0769L89.8381 75.0535C89.8545 74.7049 89.8145 74.2923 89.6678 73.8863C89.4023 73.1517 88.8476 72.6622 87.9787 72.5873Z" fill="black"/>
<path d="M82.4142 73.8924L77.1668 73.4381" stroke="black" stroke-width="0.701141"/>
<path d="M91.6163 67.3722C91.55 67.2077 91.363 67.128 91.1986 67.1944C90.6106 67.432 89.9138 67.5991 89.1312 67.7021C87.9445 67.8584 86.6724 67.8586 85.4809 67.7648L85.2346 67.7438L84.8527 67.7032C84.677 67.6801 84.5158 67.8041 84.4928 67.98C84.4698 68.156 84.5936 68.3174 84.7694 68.3404L84.9481 68.3611L85.1751 68.3838C85.2556 68.3912 85.3409 68.3985 85.4306 68.4056C86.663 68.5026 87.9771 68.5023 89.2149 68.3393C90.0474 68.2297 90.7955 68.0503 91.4387 67.7905C91.6031 67.7241 91.6826 67.5368 91.6163 67.3722Z" fill="black"/>
<path d="M92.1148 88.95C91.9463 88.9423 91.8035 89.0729 91.7958 89.2416L91.7857 89.4006C91.7791 89.4877 91.7695 89.5955 91.7563 89.7194C91.7178 90.0805 91.6616 90.4412 91.585 90.7755C91.4255 91.4713 91.1967 91.9473 90.9441 92.0858C90.7962 92.1669 90.7419 92.3527 90.8229 92.5009C90.9039 92.6491 91.0896 92.7034 91.2375 92.6223C91.6946 92.3717 91.9838 91.7699 92.1804 90.9123C92.2631 90.5517 92.3228 90.1679 92.3638 89.7844L92.3881 89.53L92.406 89.2695C92.4137 89.1007 92.2834 88.9577 92.1148 88.95Z" fill="#EAD8D8"/>
<path d="M93.18 89.9985C93.0113 89.997 92.8733 90.1326 92.8717 90.3015L92.8644 90.5489C92.8621 90.6025 92.8592 90.6617 92.8555 90.7258C92.8373 91.0461 92.8069 91.366 92.7618 91.6626C92.7171 91.9562 92.6604 92.2098 92.5918 92.4095C92.5369 92.5693 92.6218 92.7433 92.7813 92.7982C92.9408 92.8531 93.1146 92.7682 93.1695 92.6085C93.2517 92.3692 93.316 92.0816 93.3657 91.7547C93.414 91.437 93.4462 91.0987 93.4655 90.7607L93.478 90.4926C93.4808 90.4161 93.4822 90.3535 93.4826 90.3073C93.4842 90.1384 93.3487 90.0002 93.18 89.9985Z" fill="#EAD8D8"/>
<path d="M90.7036 90.2151C90.5423 90.1656 90.3715 90.2565 90.3221 90.418L90.2966 90.497C90.2804 90.5455 90.2591 90.6067 90.2332 90.6778C90.1609 90.8753 90.0793 91.0726 89.9907 91.2552C89.8263 91.5939 89.6568 91.8362 89.5223 91.9288L89.4831 91.952C89.3315 92.0261 89.2686 92.2092 89.3426 92.361C89.4166 92.5128 89.5995 92.5758 89.7511 92.5017C90.0524 92.3544 90.3026 92.0121 90.5402 91.5225C90.6388 91.3195 90.728 91.1037 90.8068 90.8881L90.8769 90.6882C90.8891 90.6518 90.8989 90.6211 90.9062 90.5971C90.9556 90.4356 90.8649 90.2646 90.7036 90.2151Z" fill="#EAD8D8"/>
<path d="M94.1075 89.7677C93.9573 89.7896 93.8486 89.9176 93.8462 90.0648L93.8494 90.1145L94.1157 91.9431C94.1401 92.1102 94.2951 92.226 94.4621 92.2016C94.6123 92.1796 94.721 92.0517 94.7234 91.9045L94.7203 91.8548L94.4539 90.0262C94.432 89.8758 94.3042 89.767 94.1571 89.7645L94.1075 89.7677Z" fill="#EAD8D8"/>
<path d="M83.6224 89.6321C83.4813 89.5395 83.2919 89.579 83.1995 89.7203C83.107 89.8615 83.1464 90.0511 83.2875 90.1437C83.7628 90.4556 84.2528 90.7392 84.7564 90.9954C87.8237 92.5559 91.0262 92.9981 93.7775 92.8098L94.0341 92.7903C94.2678 92.7708 94.4335 92.7511 94.5234 92.7375C94.6902 92.7122 94.805 92.5564 94.7798 92.3894C94.7546 92.2223 94.5989 92.1074 94.4321 92.1327L94.2924 92.1507C94.2324 92.1576 94.1592 92.1651 94.0734 92.1729L93.9833 92.1807C91.279 92.4065 88.0801 92.0001 85.0332 90.45C84.5494 90.2039 84.0787 89.9316 83.6224 89.6321Z" fill="#EAD8D8"/>
<path d="M89.8913 80.067C89.8436 79.905 89.6737 79.8124 89.5119 79.8602L89.371 79.9048C89.2623 79.9406 89.1416 79.9829 89.0117 80.0316C88.6404 80.1708 88.2689 80.3338 87.9203 80.5202C86.7543 81.1437 86.0848 81.8828 86.2471 82.7766C86.2773 82.9428 86.4364 83.053 86.6023 83.0228C86.7683 82.9926 86.8784 82.8334 86.8482 82.6672C86.7501 82.1271 87.2555 81.5692 88.2081 81.0598C88.5306 80.8874 88.8782 80.7348 89.226 80.6044L89.3924 80.5436C89.5205 80.4982 89.6209 80.4657 89.6846 80.4469C89.8465 80.3991 89.939 80.2291 89.8913 80.067Z" fill="#EAD8D8"/>
<path fill-rule="evenodd" clip-rule="evenodd" d="M75.0107 95.7437L73.305 98.914C73.305 98.914 61.47 100.336 55.6914 103.821C50.466 106.972 51.1241 140.242 51.9281 151.438C49.1129 164.584 59.6177 163.524 59.6177 163.524L97.1052 166.62C97.1052 166.62 102.592 163.5 99.8642 154.237C100.564 146.704 112.78 110.576 108.061 105.851C104.392 102.176 95.5339 101.458 95.5339 101.458L94.9401 97.7746C94.9401 97.7746 89.2544 97.1246 75.0107 95.7437Z" fill="#ADC6FF"/>
<path d="M106.257 120.236C106.085 120.22 105.932 120.345 105.916 120.517C105.593 123.836 104.964 127.798 104.079 132.267C103.58 134.785 103.007 137.424 102.375 140.147C101.629 143.36 100.836 146.544 100.037 149.582L99.5666 151.351C99.433 151.849 99.3042 152.324 99.1807 152.776L98.859 153.941L98.5869 154.908C98.5393 155.074 98.6351 155.247 98.8009 155.295C98.9667 155.342 99.1397 155.246 99.1874 155.08L99.5141 153.918L99.7832 152.941C99.9688 152.263 100.167 151.53 100.374 150.75C101.264 147.406 102.154 143.866 102.984 140.288C103.617 137.559 104.191 134.913 104.692 132.388L104.892 131.362C105.676 127.292 106.238 123.663 106.537 120.578C106.554 120.406 106.428 120.253 106.257 120.236Z" fill="#597EF7"/>
<path d="M76.2214 100.665C76.0545 100.621 75.8837 100.721 75.8397 100.888C75.7957 101.055 75.8954 101.226 76.0622 101.27C81.9143 102.814 87.6596 103.208 92.4971 102.946L92.8981 102.923C93.1455 102.908 93.3692 102.891 93.568 102.875L93.9646 102.838C93.9784 102.837 93.9904 102.835 94.0005 102.834C94.172 102.815 94.2952 102.66 94.2759 102.488C94.2565 102.317 94.1019 102.193 93.9304 102.213L93.6572 102.239L93.2058 102.275C93.0963 102.283 92.9808 102.291 92.8593 102.299C88.0012 102.601 82.1632 102.232 76.2214 100.665Z" fill="#597EF7"/>
<path fill-rule="evenodd" clip-rule="evenodd" d="M113.362 249.166C109.339 248.5 105.748 251.761 106.027 255.834C106.349 260.52 106.751 266.852 107.092 273.677C107.443 280.701 107.748 286.521 108.276 287.244C110.598 290.427 115.063 291.49 119.716 294.564C123.398 296.997 124.06 298.19 128.672 298.893C135.21 299.891 132.088 297.235 124.579 288.753C117.89 281.196 118.198 277.535 118.198 277.535L118.648 255.537C118.712 252.393 116.461 249.679 113.362 249.166Z" fill="#ECD8D2"/>
<path fill-rule="evenodd" clip-rule="evenodd" d="M123.857 286.711C128.728 291.774 134.246 295.719 134.199 298.204C134.154 300.689 132.276 302.995 124.098 300.399C118.501 298.622 120.043 297.381 114.649 294.121C111.956 292.493 111.001 292.711 108.503 290.795C107.049 289.05 107.379 280.317 107.379 280.317L116.974 290.151C116.974 290.151 114.408 285.506 116.35 284.415C118.291 283.323 120.087 282.563 121.282 283.363C122.476 284.164 123.857 286.711 123.857 286.711Z" fill="black"/>
<path fill-rule="evenodd" clip-rule="evenodd" d="M125.144 201.219C123.392 238.196 121.192 274.393 121.192 274.393L105.602 274.926L100.587 200.745C100.587 200.745 101.51 189.66 113.647 190.206C124.598 190.698 125.144 201.219 125.144 201.219Z" fill="#597EF7"/>
<path fill-rule="evenodd" clip-rule="evenodd" d="M118.601 189.109C101.745 182.851 80.2189 178.301 64.6255 175.127C64.6255 175.127 52.9274 176.688 52.1364 188.2C51.3618 199.482 64.0716 202.354 64.0716 202.354L115.197 208.944C115.197 208.944 123.54 209.918 125.079 199.979C126.484 190.913 118.601 189.109 118.601 189.109Z" fill="#597EF7"/>
<path d="M54.8513 166.247C54.6826 166.247 54.5459 166.384 54.5459 166.553C54.5459 166.705 54.6566 166.831 54.8018 166.855L54.8513 166.859H96.4411C96.6098 166.859 96.7465 166.722 96.7465 166.553C96.7465 166.401 96.6357 166.275 96.4906 166.251L96.4411 166.247H54.8513Z" fill="#253368"/>
<path d="M55.3107 170.993C55.142 170.993 55.0053 171.13 55.0053 171.299C55.0053 171.451 55.1161 171.577 55.2612 171.6L55.3107 171.604H97.0528C97.2215 171.604 97.3583 171.467 97.3583 171.299C97.3583 171.147 97.2475 171.02 97.1023 170.997L97.0528 170.993H55.3107Z" fill="#253368"/>
<path d="M83.9644 166.171C83.8128 166.178 83.6922 166.295 83.6755 166.441L83.6738 166.491L83.9036 171.313C83.9116 171.482 84.0547 171.612 84.2232 171.604C84.3749 171.597 84.4954 171.48 84.5122 171.334L84.5138 171.284L84.2841 166.462C84.276 166.293 84.1329 166.163 83.9644 166.171Z" fill="#253368"/>
<path fill-rule="evenodd" clip-rule="evenodd" d="M120.985 188.958L73.9945 178.754L121.789 167.179L160.27 179.524L120.985 188.958Z" fill="#CCD7EE"/>
<path fill-rule="evenodd" clip-rule="evenodd" d="M122.959 185.749L88.8319 178.339L122.735 169.822L151.491 178.898L122.959 185.749Z" fill="#4E5C93"/>
<path fill-rule="evenodd" clip-rule="evenodd" d="M73.8843 181.206L73.9837 178.77L121.963 188.793L120.997 191.345L73.8843 181.206Z" fill="#253368"/>
<path d="M128.932 172.226L101.269 180.637C101.162 180.67 101.101 180.784 101.134 180.892C101.162 180.986 101.253 181.045 101.347 181.036L101.388 181.028L129.051 172.616C129.158 172.584 129.219 172.47 129.186 172.362C129.158 172.268 129.067 172.209 128.973 172.218L128.932 172.226Z" fill="#CCD7EE"/>
<path d="M125.422 170.576L94.5221 179.408C94.4139 179.439 94.3513 179.552 94.3822 179.66C94.4092 179.755 94.4988 179.815 94.5933 179.808L94.6339 179.8L125.534 170.968C125.642 170.937 125.705 170.824 125.674 170.716C125.647 170.621 125.557 170.562 125.463 170.569L125.422 170.576Z" fill="#CCD7EE"/>
<path d="M129.2 174.72L105.949 182.144C105.842 182.178 105.782 182.293 105.817 182.4C105.847 182.494 105.938 182.551 106.032 182.541L106.073 182.533L129.324 175.108C129.431 175.074 129.49 174.959 129.456 174.852C129.426 174.758 129.335 174.701 129.24 174.711L129.2 174.72Z" fill="#CCD7EE"/>
<path d="M135.4 175.696L112.149 183.121C112.042 183.155 111.983 183.27 112.017 183.377C112.047 183.471 112.138 183.528 112.232 183.518L112.273 183.509L135.524 176.085C135.631 176.05 135.69 175.936 135.656 175.828C135.626 175.735 135.535 175.677 135.44 175.688L135.4 175.696Z" fill="#CCD7EE"/>
<path d="M141.103 177.004L117.852 184.428C117.744 184.463 117.685 184.577 117.719 184.685C117.749 184.778 117.841 184.836 117.935 184.825L117.975 184.817L141.227 177.392C141.334 177.358 141.393 177.243 141.359 177.136C141.329 177.042 141.237 176.985 141.143 176.995L141.103 177.004Z" fill="#CCD7EE"/>
<path d="M94.5483 177.164C94.4376 177.143 94.3316 177.217 94.3116 177.328C94.294 177.425 94.3481 177.518 94.436 177.553L94.4756 177.565L123.738 182.876C123.849 182.896 123.955 182.823 123.975 182.712C123.993 182.615 123.939 182.522 123.851 182.486L123.811 182.475L94.5483 177.164Z" fill="#CCD7EE"/>
<path d="M101.215 175.227C101.105 175.206 100.999 175.28 100.979 175.391C100.961 175.488 101.015 175.581 101.103 175.616L101.143 175.628L130.406 180.939C130.517 180.959 130.623 180.886 130.643 180.775C130.66 180.678 130.606 180.585 130.519 180.549L130.479 180.538L101.215 175.227Z" fill="#CCD7EE"/>
<path d="M109.406 174.147C109.295 174.126 109.189 174.2 109.169 174.311C109.151 174.408 109.205 174.501 109.293 174.536L109.333 174.548L138.596 179.859C138.706 179.879 138.812 179.806 138.832 179.695C138.85 179.598 138.796 179.504 138.708 179.469L138.668 179.458L109.406 174.147Z" fill="#CCD7EE"/>
<path d="M115.116 170.374C115.006 170.354 114.9 170.427 114.88 170.538C114.862 170.635 114.916 170.728 115.004 170.764L115.044 170.775L144.307 176.086C144.418 176.106 144.524 176.033 144.544 175.922C144.561 175.825 144.507 175.732 144.42 175.697L144.38 175.685L115.116 170.374Z" fill="#CCD7EE"/>
<path fill-rule="evenodd" clip-rule="evenodd" d="M121.035 191.35L123.155 191.655L160.363 182.229L178.638 121.187L138.817 126.824L121.035 191.35Z" fill="#253368"/>
<path fill-rule="evenodd" clip-rule="evenodd" d="M123.231 191.663L162.468 181.74C162.826 181.65 163.111 181.377 163.218 181.022L180.847 122.364C181.069 121.626 180.452 120.908 179.691 121.016L141.914 126.417C141.501 126.477 141.161 126.776 141.049 127.18L123.231 191.663Z" fill="#4E5C93"/>
<path fill-rule="evenodd" clip-rule="evenodd" d="M66.3948 151.772C66.3948 151.772 65.111 163.117 54.7513 161.765C44.1879 160.385 45.9343 148.956 45.9343 148.956C45.9343 148.956 45.7942 141.79 47.0397 132.226C48.0131 124.752 49.4175 115 50.4951 110.277C51.6583 105.181 56.5702 102.038 61.4226 102.671C68.7962 103.634 70.9939 109.739 70.5565 114.922C70.1313 119.961 69.4544 128.255 68.863 133.799C67.725 144.459 66.3948 151.772 66.3948 151.772Z" fill="#ADC6FF"/>
<path fill-rule="evenodd" clip-rule="evenodd" d="M96.3599 166.351C97.7243 171.452 109.071 169.72 109.071 169.72L114.632 174.254C115.512 174.863 115.891 174.269 116.37 174.378C117.662 174.673 117.971 173.314 117.971 173.314C118.465 173.203 119.104 173.709 119.578 172.524C119.578 172.524 120.497 172.665 120.812 171.58C120.928 171.176 119.153 165.714 118.094 162.519C117.628 161.115 116.416 160.095 114.955 159.875L101.376 157.828C101.376 157.828 94.5247 159.489 96.3599 166.351Z" fill="#ECD8D2"/>
<path d="M108.236 166.159C108.081 166.093 107.902 166.165 107.836 166.32C107.776 166.46 107.828 166.62 107.952 166.699L107.996 166.722L112.007 168.437L116.012 173.957C116.1 174.079 116.261 174.116 116.391 174.053L116.438 174.025C116.56 173.937 116.597 173.776 116.534 173.645L116.506 173.598L112.451 168.009C112.429 167.98 112.403 167.954 112.372 167.934L112.324 167.908L108.236 166.159Z" fill="#EAD8D8"/>
<path d="M110.964 164.476C110.817 164.393 110.63 164.445 110.548 164.592C110.474 164.723 110.507 164.885 110.618 164.978L110.664 165.009L114.346 167.086L117.609 172.801C117.684 172.931 117.84 172.986 117.976 172.938L118.026 172.915C118.156 172.84 118.211 172.684 118.163 172.547L118.14 172.497L114.834 166.709C114.816 166.677 114.792 166.649 114.764 166.625L114.719 166.594L110.964 164.476Z" fill="#EAD8D8"/>
<path d="M113.605 162.918C113.473 162.813 113.281 162.836 113.176 162.968C113.083 163.086 113.091 163.251 113.186 163.36L113.226 163.398L115.706 165.361L118.684 171.495C118.751 171.632 118.905 171.697 119.046 171.655L119.093 171.636C119.229 171.57 119.294 171.415 119.252 171.274L119.234 171.228L116.225 165.031C116.211 165.003 116.194 164.978 116.173 164.956L116.139 164.925L113.605 162.918Z" fill="#EAD8D8"/>
<path fill-rule="evenodd" clip-rule="evenodd" d="M60.3492 142.565C60.3492 142.565 48.9256 140.159 46.6049 149.653C44.2117 159.443 55.0651 162.26 55.0651 162.26C55.0651 162.26 62.7506 164.053 72.2127 166.304C77.9905 167.679 84.4003 169.068 89.1982 169.409C94.3935 169.779 95.5682 167.118 96.7281 162.371C98.1064 156.735 98.1031 154.263 93.2931 152.332C88.7078 150.49 82.2613 148.831 77.3241 147.319C67.9101 144.435 60.3492 142.565 60.3492 142.565Z" fill="#ADC6FF"/>
<path fill-rule="evenodd" clip-rule="evenodd" d="M99.1218 168.641L101.805 157.663L94.5903 155.058L91.521 167.616L99.1218 168.641Z" fill="#ADC6FF"/>
<path d="M70.481 121.155C70.3094 121.137 70.1555 121.261 70.1372 121.433L70.0455 122.226C69.8354 123.942 69.4243 126.83 68.8321 130.799L66.7703 144.428C66.7482 144.583 66.845 144.731 66.9965 144.773C69.7977 145.547 72.6595 146.371 75.5393 147.242L77.5081 147.839L84.0287 149.746L85.09 150.06C88.3686 151.039 90.7229 151.82 92.7184 152.622C95.0642 153.564 96.2051 154.617 96.5885 156.132C96.6098 156.216 96.6645 156.286 96.7387 156.328L96.7854 156.349L100.976 157.861L98.4277 168.292L93.8751 167.68C93.7978 167.669 93.7202 167.688 93.657 167.731L93.6125 167.768C92.5589 168.823 91.0537 169.261 88.762 169.098C84.7188 168.81 79.5247 167.822 72.2565 166.102L66.2214 164.67L54.6777 161.955C54.5096 161.916 54.3417 162.021 54.3025 162.189C54.2634 162.357 54.3679 162.525 54.5359 162.565L59.5606 163.742C62.0295 164.323 64.5885 164.926 67.1899 165.542L72.5409 166.812C79.6173 168.477 84.7115 169.437 88.7177 169.722C91.0227 169.886 92.6455 169.466 93.8244 168.427L93.9421 168.32L98.6222 168.95C98.7629 168.969 98.8961 168.891 98.9507 168.764L98.9673 168.715L101.65 157.738C101.683 157.599 101.62 157.458 101.5 157.391L101.452 157.369L97.1499 155.815L97.1129 155.693C96.6222 154.156 95.4003 153.061 93.1577 152.126L92.9511 152.041L92.5276 151.874C90.7407 151.176 88.6612 150.484 85.9194 149.656L83.5366 148.952C82.1745 148.557 79.0856 147.657 77.5417 147.196L76.9572 147.02C74.0681 146.135 71.1911 145.295 68.3687 144.505L67.4288 144.244L69.4056 131.189C70.1283 126.353 70.5902 123.076 70.7584 121.5C70.7768 121.328 70.6525 121.174 70.481 121.155Z" fill="#597EF7"/>
<path fill-rule="evenodd" clip-rule="evenodd" d="M260.332 204.468C272.747 198.63 280.146 213.942 273.903 222.467C266.283 232.87 262.38 244.841 260.207 248.447C258.373 251.49 253.351 258.907 247.303 255.488C241.737 252.342 244.77 239.993 244.77 239.993C244.77 239.993 245.016 211.671 260.332 204.468Z" fill="#5B8C00"/>
<path fill-rule="evenodd" clip-rule="evenodd" d="M222.99 253.111C218.769 247.45 217.228 239.325 221.939 237.242C226.456 235.245 233.938 240.163 237.403 249.627C240.869 259.092 242.868 265.897 239.478 267.08C233.916 269.021 228.565 260.588 222.99 253.111Z" fill="#5B8C00"/>
<path fill-rule="evenodd" clip-rule="evenodd" d="M267.362 253.541C262.588 259.102 255.7 270.291 251.384 266.372C248.768 263.998 252.265 252.751 261.836 246.632C269.978 241.427 272.136 247.979 267.362 253.541Z" fill="#7CB305"/>
<path fill-rule="evenodd" clip-rule="evenodd" d="M221.681 214.944C223.497 213.73 225.78 213.453 227.864 214.116C230.772 215.042 235.186 217.8 239.553 225.714C245.256 236.047 248.224 247.375 247.638 254.55C247.254 259.243 241.439 261.266 238.186 257.844C236.692 256.273 235.112 253.851 233.565 250.176C227.341 235.389 221.522 226.122 220.828 225.192C218.976 222.709 217.652 217.64 221.681 214.944Z" fill="#7CB305"/>
<path fill-rule="evenodd" clip-rule="evenodd" d="M225.856 220.843C225.917 221.573 225.372 222.214 224.638 222.275C223.903 222.337 223.258 221.794 223.196 221.064C223.135 220.334 223.68 219.693 224.414 219.631C225.149 219.57 225.794 220.112 225.856 220.843Z" fill="white"/>
<path fill-rule="evenodd" clip-rule="evenodd" d="M237.19 226.506C237.251 227.237 236.706 227.878 235.971 227.939C235.237 228.001 234.592 227.458 234.53 226.728C234.469 225.998 235.014 225.357 235.748 225.295C236.483 225.234 237.128 225.776 237.19 226.506Z" fill="white"/>
<path fill-rule="evenodd" clip-rule="evenodd" d="M235.29 241.587C235.361 242.423 234.736 243.158 233.895 243.228C233.054 243.298 232.315 242.677 232.245 241.841C232.174 241.005 232.799 240.27 233.64 240.2C234.48 240.13 235.219 240.751 235.29 241.587Z" fill="white"/>
<path fill-rule="evenodd" clip-rule="evenodd" d="M270.102 219.05C270.102 220.236 269.135 221.198 267.941 221.198C266.748 221.198 265.78 220.236 265.78 219.05C265.78 217.863 266.748 216.901 267.941 216.901C269.135 216.901 270.102 217.863 270.102 219.05Z" fill="white"/>
<path fill-rule="evenodd" clip-rule="evenodd" d="M252.705 225.611C252.705 226.797 251.737 227.759 250.544 227.759C249.35 227.759 248.383 226.797 248.383 225.611C248.383 224.424 249.35 223.462 250.544 223.462C251.737 223.462 252.705 224.424 252.705 225.611Z" fill="white"/>
<path fill-rule="evenodd" clip-rule="evenodd" d="M258.34 240.195C258.34 240.691 257.935 241.093 257.436 241.093C256.937 241.093 256.533 240.691 256.533 240.195C256.533 239.699 256.937 239.297 257.436 239.297C257.935 239.297 258.34 239.699 258.34 240.195Z" fill="white"/>
<path fill-rule="evenodd" clip-rule="evenodd" d="M264.847 251.679C264.847 252.412 264.249 253.006 263.513 253.006C262.776 253.006 262.178 252.412 262.178 251.679C262.178 250.947 262.776 250.353 263.513 250.353C264.249 250.353 264.847 250.947 264.847 251.679Z" fill="white"/>
<path d="M233.68 254.622C233.804 254.504 234.001 254.508 234.12 254.632L234.177 254.693L234.22 254.741C234.298 254.828 234.389 254.931 234.491 255.052C234.78 255.395 235.101 255.805 235.447 256.281C236.433 257.637 237.417 259.256 238.336 261.134C240.957 266.493 242.528 272.859 242.528 280.207C242.528 280.378 242.389 280.517 242.217 280.517C242.045 280.517 241.906 280.378 241.906 280.207C241.906 272.956 240.357 266.682 237.776 261.404C236.874 259.56 235.908 257.972 234.943 256.643C234.626 256.206 234.33 255.828 234.064 255.509L234.014 255.45C233.938 255.36 233.869 255.28 233.808 255.211L233.73 255.124C233.701 255.092 233.68 255.07 233.669 255.059C233.551 254.935 233.556 254.74 233.68 254.622Z" fill="#CB2026"/>
<path d="M257.187 256.787C257.29 256.65 257.485 256.622 257.622 256.724C257.76 256.826 257.788 257.02 257.686 257.157C256.552 258.666 255.506 260.288 254.545 262.008C252.512 265.644 250.94 269.542 249.773 273.44C249.365 274.804 249.036 276.071 248.781 277.207L248.729 277.44C248.668 277.718 248.615 277.971 248.57 278.198L248.541 278.347L248.49 278.627C248.461 278.796 248.301 278.909 248.131 278.881C247.962 278.853 247.847 278.693 247.876 278.525L247.894 278.425C247.908 278.345 247.926 278.25 247.947 278.141L247.999 277.884C248.049 277.638 248.107 277.367 248.173 277.072L248.23 276.823C248.48 275.739 248.793 274.543 249.177 273.263C250.355 269.325 251.944 265.386 254.001 261.708C254.976 259.964 256.036 258.319 257.187 256.787Z" fill="#CB2026"/>
<path d="M262.624 218.193C262.743 218.307 262.752 218.492 262.647 218.615L262.634 218.631C262.627 218.637 262.614 218.651 262.594 218.672L262.518 218.755L262.473 218.804C262.339 218.953 262.184 219.131 262.008 219.34C261.504 219.94 260.942 220.661 260.336 221.504C258.602 223.918 256.867 226.824 255.247 230.227C252.55 235.894 250.449 242.356 249.176 249.621C247.63 258.443 247.374 268.08 248.639 278.539C248.66 278.709 248.538 278.863 248.368 278.883C248.197 278.903 248.042 278.783 248.021 278.613C246.749 268.094 247.006 258.396 248.563 249.515C249.846 242.194 251.964 235.678 254.685 229.963C256.321 226.526 258.075 223.587 259.83 221.144L259.966 220.956C260.507 220.211 261.013 219.563 261.473 219.012L261.531 218.944C261.696 218.747 261.845 218.576 261.975 218.43L262.01 218.391C262.051 218.346 262.087 218.306 262.119 218.272L262.184 218.203C262.303 218.079 262.5 218.075 262.624 218.193Z" fill="#CB2026"/>
<path d="M235.692 236.537C235.839 236.449 236.03 236.495 236.119 236.642L236.151 236.694C236.175 236.736 236.205 236.785 236.238 236.843L236.287 236.928C236.37 237.074 236.464 237.242 236.568 237.431L236.653 237.588C236.97 238.174 237.316 238.852 237.687 239.619L237.737 239.725C238.945 242.24 240.152 245.182 241.279 248.525C244.433 257.886 246.352 268.51 246.423 280.205C246.424 280.376 246.286 280.516 246.114 280.517C245.942 280.518 245.802 280.38 245.801 280.209C245.73 268.582 243.823 258.022 240.689 248.722C239.591 245.464 238.416 242.591 237.241 240.127L237.176 239.991C236.774 239.154 236.4 238.424 236.063 237.803L235.961 237.617C235.864 237.441 235.776 237.285 235.699 237.152L235.662 237.089L235.587 236.962C235.498 236.816 235.545 236.626 235.692 236.537Z" fill="#CB2026"/>
<path fill-rule="evenodd" clip-rule="evenodd" d="M259.639 295.551H232.744C231.29 295.551 230.1 294.369 230.1 292.923V273.416C230.1 271.971 231.29 270.788 232.744 270.788H259.639C261.092 270.788 262.282 271.971 262.282 273.416V292.923C262.282 294.369 261.092 295.551 259.639 295.551Z" fill="#CB2026"/>
<path fill-rule="evenodd" clip-rule="evenodd" d="M361.741 57.9994H191.632V44.3642C191.632 41.4064 194.039 39.0082 197.008 39.0082H356.365C359.334 39.0082 361.741 41.4064 361.741 44.3642V57.9994Z" fill="#253368"/>
<path fill-rule="evenodd" clip-rule="evenodd" d="M355.754 189.022H197.619C194.313 189.022 191.632 186.627 191.632 183.673V56.3194H361.741V183.673C361.741 186.627 359.061 189.022 355.754 189.022Z" fill="#E4EBF7"/>
<path fill-rule="evenodd" clip-rule="evenodd" d="M203.968 47.8463C203.968 49.7025 202.467 51.2076 200.615 51.2076C198.763 51.2076 197.262 49.7025 197.262 47.8463C197.262 45.99 198.763 44.485 200.615 44.485C202.467 44.485 203.968 45.99 203.968 47.8463Z" fill="#FF7946"/>
<path fill-rule="evenodd" clip-rule="evenodd" d="M216.49 47.8463C216.49 49.7025 214.989 51.2076 213.137 51.2076C211.286 51.2076 209.784 49.7025 209.784 47.8463C209.784 45.99 211.286 44.485 213.137 44.485C214.989 44.485 216.49 45.99 216.49 47.8463Z" fill="#FAAD14"/>
<path fill-rule="evenodd" clip-rule="evenodd" d="M229.013 47.8463C229.013 49.7025 227.512 51.2076 225.66 51.2076C223.808 51.2076 222.307 49.7025 222.307 47.8463C222.307 45.99 223.808 44.485 225.66 44.485C227.512 44.485 229.013 45.99 229.013 47.8463Z" fill="#7CB305"/>
<path d="M349.818 82.6208H203.555V100.155H349.818V82.6208Z" fill="white"/>
<path d="M349.818 103.343H203.555V120.877H349.818V103.343Z" fill="#597EF7"/>
<path d="M349.818 124.065H203.555V141.6H349.818V124.065Z" fill="white"/>
<path d="M349.818 144.788H203.555V162.322H349.818V144.788Z" fill="white"/>
<path d="M225.018 64.688H205.145C204.267 64.688 203.555 65.3998 203.555 66.2779V73.0609C203.555 73.9389 204.267 74.6507 205.145 74.6507H225.018C225.896 74.6507 226.608 73.9389 226.608 73.0609V66.2779C226.608 65.3998 225.896 64.688 225.018 64.688Z" fill="#CCD7EE"/>
<path d="M306.893 64.688H294.969C294.091 64.688 293.379 65.3998 293.379 66.2779V73.0609C293.379 73.9389 294.091 74.6507 294.969 74.6507H306.893C307.771 74.6507 308.483 73.9389 308.483 73.0609V66.2779C308.483 65.3998 307.771 64.688 306.893 64.688Z" fill="#CCD7EE"/>
<path d="M346.241 169.894H341.074C339.757 169.894 338.689 170.961 338.689 172.278V177.472C338.689 178.789 339.757 179.856 341.074 179.856H346.241C347.558 179.856 348.625 178.789 348.625 177.472V172.278C348.625 170.961 347.558 169.894 346.241 169.894Z" fill="#CCD7EE"/>
<path d="M332.33 169.894H327.163C325.846 169.894 324.778 170.961 324.778 172.278V177.472C324.778 178.789 325.846 179.856 327.163 179.856H332.33C333.647 179.856 334.714 178.789 334.714 177.472V172.278C334.714 170.961 333.647 169.894 332.33 169.894Z" fill="#CCD7EE"/>
<path d="M318.419 169.894H313.252C311.935 169.894 310.867 170.961 310.867 172.278V177.472C310.867 178.789 311.935 179.856 313.252 179.856H318.419C319.736 179.856 320.804 178.789 320.804 177.472V172.278C320.804 170.961 319.736 169.894 318.419 169.894Z" fill="#597EF7"/>
<path d="M285.828 64.688H234.159C233.281 64.688 232.569 65.3998 232.569 66.2779V73.0609C232.569 73.9389 233.281 74.6507 234.159 74.6507H285.828C286.706 74.6507 287.418 73.9389 287.418 73.0609V66.2779C287.418 65.3998 286.706 64.688 285.828 64.688Z" fill="#CCD7EE"/>
</svg>
