<svg width="100" height="100" viewBox="0 0 100 100" fill="none" xmlns="http://www.w3.org/2000/svg">
<path fill-rule="evenodd" clip-rule="evenodd" d="M8.67832 87.8162C6.94846 87.8162 5.54602 86.4139 5.54602 84.684C5.54602 82.9541 6.94846 81.5518 8.67832 81.5518H91.3023C93.0321 81.5518 94.4346 82.9541 94.4346 84.684C94.4346 86.4139 93.0321 87.8162 91.3023 87.8162H8.67832Z" fill="#E4EBF7"/>
<path fill-rule="evenodd" clip-rule="evenodd" d="M8.00033 87.8163C6.64491 87.8163 5.54614 86.4139 5.54614 84.684H94.4346C94.4346 86.4139 93.3359 87.8163 91.9805 87.8163H8.00033Z" fill="#A3B5D6"/>
<path fill-rule="evenodd" clip-rule="evenodd" d="M61.9728 81.5518L59.5392 82.8164C58.9023 83.1474 58.2211 83.3177 57.5335 83.3177H41.493C40.6838 83.3177 39.8852 83.0819 39.1581 82.6286L37.4314 81.5518H61.9728Z" fill="#CCD7EE"/>
<path fill-rule="evenodd" clip-rule="evenodd" d="M92.1456 75.7271H7.85435C6.5368 75.7271 5.46875 74.6591 5.46875 73.3416V14.4967C5.46875 13.1791 6.5368 12.1111 7.85435 12.1111H92.1456C93.4632 12.1111 94.5312 13.1791 94.5312 14.4967V73.3416C94.5312 74.6591 93.4632 75.7271 92.1456 75.7271Z" fill="#E4EBF7"/>
<path fill-rule="evenodd" clip-rule="evenodd" d="M9.44083 71.9122C9.00168 71.9122 8.64563 71.5561 8.64563 71.117V16.8273C8.64563 16.3882 9.00168 16.0321 9.44083 16.0321H90.5456C90.9847 16.0321 91.3408 16.3882 91.3408 16.8273V71.117C91.3408 71.5561 90.9847 71.9122 90.5456 71.9122H9.44083Z" fill="#1E386B"/>
<path fill-rule="evenodd" clip-rule="evenodd" d="M91.3221 23.7669H8.73291V18.1904C8.73291 16.9808 9.7387 16 10.9792 16H89.0758C90.3164 16 91.3221 16.9808 91.3221 18.1904V23.7669Z" fill="#1E386B"/>
<path fill-rule="evenodd" clip-rule="evenodd" d="M14.5242 19.6467C14.5242 20.4058 13.8969 21.0213 13.1231 21.0213C12.3494 21.0213 11.7222 20.4058 11.7222 19.6467C11.7222 18.8875 12.3494 18.272 13.1231 18.272C13.8969 18.272 14.5242 18.8875 14.5242 19.6467Z" fill="#FF7946"/>
<path fill-rule="evenodd" clip-rule="evenodd" d="M19.755 19.6467C19.755 20.4058 19.1278 21.0213 18.354 21.0213C17.5803 21.0213 16.9531 20.4058 16.9531 19.6467C16.9531 18.8875 17.5803 18.272 18.354 18.272C19.1278 18.272 19.755 18.8875 19.755 19.6467Z" fill="#FAAD14"/>
<path fill-rule="evenodd" clip-rule="evenodd" d="M24.9861 19.6467C24.9861 20.4058 24.3589 21.0213 23.5851 21.0213C22.8114 21.0213 22.1842 20.4058 22.1842 19.6467C22.1842 18.8875 22.8114 18.272 23.5851 18.272C24.3589 18.272 24.9861 18.8875 24.9861 19.6467Z" fill="#7CB305"/>
<path d="M85.9884 27.4408H15.0113C14.4527 27.4408 13.9999 27.8324 13.9999 28.3155V67.5661C13.9999 68.0492 14.4527 68.4408 15.0113 68.4408H85.9884C86.547 68.4408 86.9999 68.0492 86.9999 67.5661V28.3155C86.9999 27.8324 86.547 27.4408 85.9884 27.4408Z" fill="white"/>
<path d="M76.449 33.5966H40.6868C40.2753 33.5966 39.9418 33.9301 39.9418 34.3416V38.0668C39.9418 38.4783 40.2753 38.8119 40.6868 38.8119H76.449C76.8605 38.8119 77.194 38.4783 77.194 38.0668V34.3416C77.194 33.9301 76.8605 33.5966 76.449 33.5966Z" fill="#FAAD14"/>
<path d="M76.4491 51.8501H63.0383C62.6268 51.8501 62.2932 52.1837 62.2932 52.5951V56.3204C62.2932 56.7318 62.6268 57.0654 63.0383 57.0654H76.4491C76.8605 57.0654 77.1941 56.7318 77.1941 56.3204V52.5951C77.1941 52.1837 76.8605 51.8501 76.4491 51.8501Z" fill="#FF7946"/>
<path d="M76.4491 43.6547H63.0383C62.6268 43.6547 62.2932 43.9882 62.2932 44.3997V48.1249C62.2932 48.5364 62.6268 48.87 63.0383 48.87H76.4491C76.8605 48.87 77.1941 48.5364 77.1941 48.1249V44.3997C77.1941 43.9882 76.8605 43.6547 76.4491 43.6547Z" fill="#597EF7"/>
<path fill-rule="evenodd" clip-rule="evenodd" d="M30.7244 33.9691H34.6309L43.2946 56.693H39.6086L37.4978 50.837H27.826L25.7153 56.693H22.0608L30.7244 33.9691ZM28.7662 48.125H36.2166L32.5687 38.0669H32.4451L28.7662 48.125ZM51.7424 42.9097C53.4968 42.9097 54.7894 43.3772 55.6205 44.3123C56.336 45.1243 56.7054 46.3054 56.7054 47.8557V55.976H54.4432V54.1797C53.9815 54.8194 53.4044 55.3362 52.7119 55.7053C51.9271 56.099 51.0037 56.3205 49.9419 56.3205C48.6954 56.3205 47.7258 55.976 47.0333 55.3116C46.2716 54.6472 45.9022 53.7859 45.9022 52.7278C45.9022 51.3006 46.4332 50.1933 47.495 49.4305C48.4645 48.6923 49.8495 48.3232 51.6039 48.274L54.2816 48.2002V47.6834C54.2816 45.9117 53.3813 45.0259 51.5808 45.0259C50.8191 45.0259 50.1958 45.1735 49.7341 45.4688C49.1801 45.8133 48.8339 46.33 48.6954 47.0436L46.2716 46.8222C46.5255 45.4442 47.1718 44.4107 48.1875 43.7709C49.0647 43.1803 50.265 42.9097 51.7424 42.9097ZM54.8428 50.3601L52.285 50.4316C50.0088 50.4792 48.8824 51.2892 48.8824 52.814C48.8824 53.2905 49.0701 53.6717 49.4691 53.9814C49.8445 54.2911 50.3608 54.4579 50.9944 54.4579C52.0503 54.4579 52.942 54.1243 53.6929 53.4811C54.4439 52.8378 54.8428 52.0278 54.8428 51.0748V50.3601Z" fill="#1E386B"/>
</svg>
