<svg width="100" height="100" viewBox="0 0 100 100" fill="none" xmlns="http://www.w3.org/2000/svg">
<g clip-path="url(#clip0_1886_2095)">
<path d="M33.7521 40.6399L22.6605 48.8651H78.0306L66.878 40.6399H33.7521Z" fill="#E4EBF7"/>
<path d="M66.878 48.8575L78.0306 48.8651L66.878 40.6399V48.8575Z" fill="#A3B5D6"/>
<path d="M32.1346 26.0208L41.5883 80.1331C41.8044 81.3717 42.9858 82.2022 44.2244 81.9847L48.4337 81.2497C49.6723 81.0322 50.5027 79.8521 50.2853 78.6135L40.8329 24.5011L32.1346 26.0208Z" fill="#FFA940"/>
<path d="M33.4101 16.8407L32.1359 26.026L40.8329 24.5064L36.7622 16.2557L33.4101 16.8407Z" fill="#FFE7BA"/>
<path d="M34.4083 12.8131C34.332 12.8259 34.2709 12.8869 34.2569 12.9632L33.5168 16.8278L36.696 16.2721L34.6054 12.8996C34.5698 12.8437 34.5087 12.8093 34.4439 12.8093C34.4312 12.8093 34.4197 12.8106 34.4083 12.8131Z" fill="#1E386B"/>
<path d="M34.7592 25.5937L44.5994 81.92L48.15 81.2994L38.311 24.9718L34.7592 25.5937Z" fill="#FE9921"/>
<path d="M46.863 77.6559L46.713 81.9656C46.6659 83.2983 47.7087 84.4161 49.0414 84.4619C50.3741 84.5089 51.4919 83.4662 51.539 82.1347L51.6878 77.8237L46.8643 77.6559H46.863Z" fill="#1E386B"/>
<path d="M51.2808 13.1564L51.015 14.6812C50.9565 15.0143 51.1816 15.3335 51.5148 15.3908C51.8492 15.4493 52.1671 15.2254 52.2256 14.891L52.4914 13.3663C52.5499 13.0318 52.3261 12.7139 51.9916 12.6554C51.956 12.6503 51.9204 12.6465 51.8848 12.6465C51.5923 12.6465 51.3329 12.8563 51.2808 13.1564Z" fill="#03486E"/>
<path d="M37.8264 73.692C37.609 74.9319 38.4406 76.112 39.6805 76.3282L42.1768 76.7631C43.4167 76.978 44.5968 76.1489 44.8117 74.909L53.9373 22.5159L46.9507 21.299L37.8264 73.692Z" fill="#597EF7"/>
<path d="M50.6614 14.6684L46.9506 21.299L53.941 22.5172L52.5778 14.9965C52.5485 14.8388 52.4239 14.7142 52.265 14.6888L51.0594 14.479C51.0378 14.4751 51.0162 14.4739 50.9946 14.4739C50.8585 14.4739 50.73 14.5464 50.6614 14.6684Z" fill="#E4EBF7"/>
<path d="M21.5339 20.2576L19.1304 21.9286C18.8557 22.1193 18.754 22.478 18.8875 22.7844L20.3449 26.1213C20.4987 26.4774 20.9133 26.6389 21.2694 26.4837L23.9005 25.3354C24.2565 25.179 24.4193 24.7657 24.2642 24.4096L22.5805 20.5514C22.4965 20.3593 22.3299 20.2144 22.1265 20.1571C22.0654 20.1406 22.0006 20.1317 21.9383 20.1317C21.7946 20.1317 21.6547 20.1737 21.5339 20.2576Z" fill="#FF7946"/>
<path d="M21.1281 35.5876L39.3487 77.3317L49.2054 73.0296L30.9848 31.2855L21.1281 35.5876Z" fill="#FF7946"/>
<path d="M21.1281 35.5876L22.724 39.2411L32.5808 34.9403L30.9848 31.2855L21.1281 35.5876Z" fill="#1E386B"/>
<path d="M19.9035 25.5247L20.1476 33.3379L21.1281 35.5875L30.9849 31.2854L30.0108 29.0537L24.1356 23.677L19.9035 25.5247Z" fill="#E4EBF7"/>
<path d="M20.1451 33.3773L21.1268 35.6256L30.9823 31.3222L30.0006 29.0752L20.1451 33.3773Z" fill="#F5F5F5"/>
<path d="M22.8069 58.905V85.4017C22.8069 86.5449 23.734 87.472 24.8772 87.472H75.9338C77.077 87.472 78.004 86.5449 78.004 85.4017V58.905H22.8069Z" fill="#597EF7"/>
<path d="M22.8066 52.8621V68.3002L78.0038 63.8977V52.8621H22.8066Z" fill="#3D60E0"/>
<g clip-path="url(#clip1_1886_2095)">
<path d="M49.4134 55.2518C52.7568 57.1822 57.0916 55.9408 59.0892 52.4808L62.708 46.2128L56.651 42.7159C53.3076 40.7855 48.9729 42.0269 46.9753 45.4869C44.9777 48.9468 46.0699 53.3215 49.4134 55.2518Z" fill="#0ACF83"/>
<path d="M61.4871 20.3515C63.4914 16.8799 67.8316 15.629 71.1751 17.5594L77.232 21.0563L69.97 33.6345L63.9131 30.1376C60.5696 28.2072 59.4828 23.8231 61.4871 20.3515Z" fill="#CB2026"/>
<path d="M77.232 21.0564L83.289 24.5534C86.6324 26.4837 87.7192 30.8679 85.7149 34.3395C83.7106 37.811 79.3704 39.0619 76.027 37.1316L69.97 33.6346L77.232 21.0564Z" fill="#FF7262"/>
<path d="M78.4773 46.8755C76.473 50.347 72.1327 51.5979 68.7893 49.6676C65.4459 47.7372 64.3591 43.3531 66.3634 39.8815C68.3677 36.4099 72.7079 35.1591 76.0513 37.0894C79.3948 39.0197 80.4816 43.4039 78.4773 46.8755Z" fill="#1ABCFE"/>
<path d="M54.2495 32.8875C56.2538 29.4159 60.594 28.165 63.9374 30.0954L69.9944 33.5924L62.7324 46.1705L56.6754 42.6736C53.332 40.7432 52.2452 36.3591 54.2495 32.8875Z" fill="#A259FF"/>
</g>
<path d="M22.6643 48.8651L17.2787 60.7133C17.074 61.1419 17.102 61.6442 17.3538 62.046C17.6068 62.4466 18.0481 62.6908 18.5212 62.6921H82.0859C82.5704 62.6921 83.0206 62.4377 83.2699 62.0219C83.5191 61.606 83.5331 61.0897 83.3067 60.6637L78.0306 48.8651H22.6643Z" fill="#E4EBF7"/>
</g>
<defs>
<clipPath id="clip0_1886_2095">
<rect width="100" height="100" fill="white"/>
</clipPath>
<clipPath id="clip1_1886_2095">
<rect width="49.741" height="49.741" fill="white" transform="translate(57.2495 5.92969) rotate(30)"/>
</clipPath>
</defs>
</svg>
