<svg width="100" height="100" viewBox="0 0 100 100" fill="none" xmlns="http://www.w3.org/2000/svg">
<path d="M71.1914 6.44531H28.8984C27.5005 6.44531 26.3672 7.57859 26.3672 8.97656V91.1367C26.3672 92.5347 27.5005 93.668 28.8984 93.668H71.1914C72.5894 93.668 73.7227 92.5347 73.7227 91.1367V8.97656C73.7227 7.57859 72.5894 6.44531 71.1914 6.44531Z" fill="#1E386B"/>
<path d="M29.7274 12.668H70.257C70.8313 12.668 71.2969 13.1336 71.2969 13.7079V86.4054C71.2969 86.9797 70.8313 87.4453 70.257 87.4453H29.7274C29.1531 87.4453 28.6875 86.9797 28.6875 86.4054V13.7079C28.6875 13.1336 29.1531 12.668 29.7274 12.668Z" fill="white"/>
<path d="M29.4169 12.5625H70.5737C70.9731 12.5625 71.2969 12.8848 71.2969 13.2823V15.9375H28.6875V13.2823C28.6875 13.0904 28.7645 12.9063 28.9015 12.7712C29.0385 12.636 29.224 12.5609 29.4169 12.5625Z" fill="#597EF7"/>
<path d="M45.0352 10.3477C45.3847 10.3477 45.668 10.0643 45.668 9.71484C45.668 9.36535 45.3847 9.08203 45.0352 9.08203C44.6857 9.08203 44.4023 9.36535 44.4023 9.71484C44.4023 10.0643 44.6857 10.3477 45.0352 10.3477Z" fill="white"/>
<path d="M71.2969 15.6211H28.6875V50.6367H71.2969V15.6211Z" fill="#E4EBF7"/>
<path d="M53.7205 9.1875H47.635C47.3641 9.1875 47.1445 9.40707 47.1445 9.67793V9.85723C47.1445 10.1281 47.3641 10.3477 47.635 10.3477H53.7205C53.9914 10.3477 54.2109 10.1281 54.2109 9.85723V9.67793C54.2109 9.40707 53.9914 9.1875 53.7205 9.1875Z" fill="white"/>
<path d="M57.3223 40.9336C62.885 40.9336 67.3945 36.4005 67.3945 30.8086C67.3945 25.2167 62.885 20.6836 57.3223 20.6836C51.7595 20.6836 47.25 25.2167 47.25 30.8086C47.25 36.4005 51.7595 40.9336 57.3223 40.9336Z" fill="white"/>
<path d="M28.6875 50.7422L37.3024 36.6965C37.5561 36.2832 37.9899 36.0143 38.4724 35.9713C38.9549 35.9284 39.4293 36.1164 39.7518 36.4784L45.3186 42.7318C45.7109 43.1728 46.2843 43.4079 46.8727 43.3689C47.4611 43.3299 47.9987 43.0212 48.3296 42.5323L55.9115 31.3327C56.2434 30.8425 56.783 30.5336 57.3731 30.4961C57.9633 30.4585 58.5376 30.6965 58.9287 31.1406L71.2969 45.195V50.7422H28.6875Z" fill="#597EF7"/>
<path d="M39.4453 19.1543C39.5909 19.1543 39.709 19.2723 39.709 19.418C39.709 19.558 39.5998 19.6725 39.462 19.6811L39.4453 19.6816H31.5352C31.3895 19.6816 31.2715 19.5636 31.2715 19.418C31.2715 19.2779 31.3806 19.1634 31.5185 19.1548L31.5352 19.1543H39.4453Z" fill="#03486E"/>
<path d="M36.5977 21.1582C36.7433 21.1582 36.8613 21.2763 36.8613 21.4219C36.8613 21.5619 36.7522 21.6764 36.6143 21.685L36.5977 21.6855H31.5352C31.3895 21.6855 31.2715 21.5675 31.2715 21.4219C31.2715 21.2819 31.3806 21.1673 31.5185 21.1587L31.5352 21.1582H36.5977Z" fill="#03486E"/>
<path d="M68.0273 56.7539C68.173 56.7539 68.291 56.872 68.291 57.0176C68.291 57.1576 68.1819 57.2721 68.044 57.2807L68.0273 57.2813H32.5898C32.4442 57.2813 32.3262 57.1632 32.3262 57.0176C32.3262 56.8776 32.4353 56.763 32.5732 56.7544L32.5898 56.7539H68.0273Z" fill="#A3B5D6"/>
<path d="M68.0273 60.7617C68.173 60.7617 68.291 60.8798 68.291 61.0254C68.291 61.1654 68.1819 61.2799 68.044 61.2885L68.0273 61.2891H32.5898C32.4442 61.2891 32.3262 61.171 32.3262 61.0254C32.3262 60.8854 32.4353 60.7708 32.5732 60.7622L32.5898 60.7617H68.0273Z" fill="#A3B5D6"/>
<path d="M67.2891 64.5586C67.4347 64.5586 67.5527 64.6766 67.5527 64.8223C67.5527 64.9623 67.4436 65.0768 67.3057 65.0854L67.2891 65.0859H32.5898C32.4442 65.0859 32.3262 64.9679 32.3262 64.8223C32.3262 64.6822 32.4353 64.5677 32.5732 64.5591L32.5898 64.5586H67.2891Z" fill="#A3B5D6"/>
<path d="M40.8164 70.8867H32.8008C32.3348 70.8867 31.957 71.2645 31.957 71.7305V79.7461C31.957 80.2121 32.3348 80.5898 32.8008 80.5898H40.8164C41.2824 80.5898 41.6602 80.2121 41.6602 79.7461V71.7305C41.6602 71.2645 41.2824 70.8867 40.8164 70.8867Z" fill="#FF7946"/>
<path d="M53.8945 70.8867H45.8789C45.4129 70.8867 45.0352 71.2645 45.0352 71.7305V79.7461C45.0352 80.2121 45.4129 80.5898 45.8789 80.5898H53.8945C54.3605 80.5898 54.7383 80.2121 54.7383 79.7461V71.7305C54.7383 71.2645 54.3605 70.8867 53.8945 70.8867Z" fill="#FAAD14"/>
<path d="M66.9727 70.8867H58.957C58.491 70.8867 58.1133 71.2645 58.1133 71.7305V79.7461C58.1133 80.2121 58.491 80.5898 58.957 80.5898H66.9727C67.4386 80.5898 67.8164 80.2121 67.8164 79.7461V71.7305C67.8164 71.2645 67.4386 70.8867 66.9727 70.8867Z" fill="#597EF7"/>
<path d="M33.2754 58.3359C33.887 58.3359 34.3828 57.8401 34.3828 57.2285C34.3828 56.6169 33.887 56.1211 33.2754 56.1211C32.6638 56.1211 32.168 56.6169 32.168 57.2285C32.168 57.8401 32.6638 58.3359 33.2754 58.3359Z" fill="#A3B5D6"/>
<path d="M48.5684 62.1328C49.18 62.1328 49.6758 61.637 49.6758 61.0254C49.6758 60.4138 49.18 59.918 48.5684 59.918C47.9567 59.918 47.4609 60.4138 47.4609 61.0254C47.4609 61.637 47.9567 62.1328 48.5684 62.1328Z" fill="#A3B5D6"/>
<path d="M63.9668 65.8242C64.5784 65.8242 65.0742 65.3284 65.0742 64.7168C65.0742 64.1052 64.5784 63.6094 63.9668 63.6094C63.3552 63.6094 62.8594 64.1052 62.8594 64.7168C62.8594 65.3284 63.3552 65.8242 63.9668 65.8242Z" fill="#A3B5D6"/>
</svg>
